<svg width="922" height="189" viewBox="0 0 922 189" fill="none" xmlns="http://www.w3.org/2000/svg">
<path d="M105 126.6C106.733 126.6 108.067 127.467 109 129.2C109.933 130.933 110.4 133.133 110.4 135.8C110.4 139.133 109.933 141.733 109 143.6C108.067 145.333 106.6 146.533 104.6 147.2C96.6 150 87.8 151.6 78.2 152C75.5333 163.067 70.4667 172 63 178.8C55.6667 185.6 47.5333 189 38.6 189C25.1333 189 15.3333 183.867 9.2 173.6C3.06667 163.333 6.85453e-07 148.467 6.85453e-07 129C6.85453e-07 111.8 2.13333 93.1333 6.4 73C10.6667 52.7333 16.8667 35.5333 25 21.4C33.2667 7.13332 43.0667 -1.14441e-05 54.4 -1.14441e-05C60.5333 -1.14441e-05 65.4667 2.66666 69.2 7.99999C72.9333 13.2 74.8 20 74.8 28.4C74.8 39.3333 72.7333 50.2 68.6 61C64.4667 71.8 57.6 83.1333 48 95C56.9333 95.6667 64.2 99.4 69.8 106.2C75.4 112.867 78.7333 121.133 79.8 131C86.0667 130.6 93.5333 129.267 102.2 127C103 126.733 103.933 126.6 105 126.6ZM49.8 19.8C47.1333 19.8 44.2 23.8 41 31.8C37.9333 39.6667 35.0667 50.4 32.4 64C29.7333 77.6 27.7333 92.4667 26.4 108.6C35.2 92.4667 42.2 78.2667 47.4 66C52.7333 53.6 55.4 42.6 55.4 33C55.4 28.7333 54.8667 25.4667 53.8 23.2C52.8667 20.9333 51.5333 19.8 49.8 19.8ZM39.4 167.8C43.5333 167.8 47.2 166.067 50.4 162.6C53.6 159.133 55.7333 154.133 56.8 147.6C52.6667 144.8 49.4667 141.133 47.2 136.6C45.0667 132.067 44 127.267 44 122.2C44 120.333 44.2667 117.8 44.8 114.6H44.2C38.7333 114.6 34.1333 117.333 30.4 122.8C26.8 128.133 25 135.333 25 144.4C25 152 26.4 157.8 29.2 161.8C32.1333 165.8 35.5333 167.8 39.4 167.8ZM119.331 81.6C113.731 81.6 109.531 80.3333 106.731 77.8C103.931 75.1333 102.531 71.4667 102.531 66.8C102.531 62.1333 104.331 58.2667 107.931 55.2C111.665 52 116.265 50.4 121.731 50.4C126.665 50.4 130.665 51.6 133.731 54C136.798 56.4 138.331 59.8 138.331 64.2C138.331 69.5333 136.598 73.8 133.131 77C129.665 80.0667 125.065 81.6 119.331 81.6ZM117.731 189C109.065 189 102.731 185.933 98.7313 179.8C94.8646 173.667 92.9313 165.533 92.9313 155.4C92.9313 149.4 93.6646 141.733 95.1313 132.4C96.7313 122.933 98.7313 114.133 101.131 106C102.331 101.733 103.931 98.8 105.931 97.2C107.931 95.6 111.131 94.8 115.531 94.8C122.331 94.8 125.731 97.0667 125.731 101.6C125.731 104.933 124.465 112.667 121.931 124.8C118.731 139.467 117.131 149.4 117.131 154.6C117.131 158.6 117.665 161.667 118.731 163.8C119.798 165.933 121.598 167 124.131 167C126.531 167 129.531 165.333 133.131 162C136.731 158.667 141.531 153.4 147.531 146.2C149.131 144.333 150.931 143.4 152.931 143.4C154.665 143.4 155.998 144.2 156.931 145.8C157.998 147.4 158.531 149.6 158.531 152.4C158.531 157.733 157.265 161.867 154.731 164.8C141.531 180.933 129.198 189 117.731 189ZM255.95 143.4C257.683 143.4 259.017 144.2 259.95 145.8C261.017 147.4 261.55 149.6 261.55 152.4C261.55 157.733 260.283 161.867 257.75 164.8C252.283 171.467 246.283 177.2 239.75 182C233.217 186.667 226.75 189 220.35 189C210.217 189 202.483 183.067 197.15 171.2C191.55 178.267 186.617 183 182.35 185.4C178.217 187.8 173.35 189 167.75 189C159.617 189 152.883 186 147.55 180C142.35 173.867 139.75 165.933 139.75 156.2C139.75 145.533 142.017 135.667 146.55 126.6C151.083 117.4 157.283 109.933 165.15 104.2C173.15 98.3333 182.083 94.8667 191.95 93.8C194.483 67.9333 199.283 45.8667 206.35 27.6C213.55 9.19999 222.95 -1.14441e-05 234.55 -1.14441e-05C240.283 -1.14441e-05 245.017 2.59999 248.75 7.8C252.617 13 254.55 20.8667 254.55 31.4C254.55 46.3333 250.883 63.8 243.55 83.8C236.217 103.8 226.417 124.333 214.15 145.4C214.683 153.133 215.817 158.667 217.55 162C219.417 165.333 221.75 167 224.55 167C228.15 167 231.817 165.4 235.55 162.2C239.283 159 244.283 153.667 250.55 146.2C252.15 144.333 253.95 143.4 255.95 143.4ZM232.35 19.6C229.817 19.6 227.283 24.1333 224.75 33.2C222.217 42.1333 220.017 53.8667 218.15 68.4C216.417 82.9333 215.15 98.1333 214.35 114C229.283 81.4667 236.75 55.3333 236.75 35.6C236.75 30.5333 236.283 26.6 235.35 23.8C234.55 21 233.55 19.6 232.35 19.6ZM174.75 168.8C177.283 168.8 179.817 167.8 182.35 165.8C184.883 163.667 188.083 159.8 191.95 154.2C190.617 147 189.95 138.933 189.95 130C189.95 126.8 190.083 121.6 190.35 114.4C183.017 116.667 176.883 121.6 171.95 129.2C167.15 136.667 164.75 145 164.75 154.2C164.75 163.933 168.083 168.8 174.75 168.8ZM259.48 189C254.413 189 250.813 186.333 248.68 181C246.68 175.667 245.68 167.133 245.68 155.4C245.68 138.067 248.146 121.6 253.08 106C254.28 102.133 256.213 99.3333 258.88 97.6C261.68 95.7333 265.546 94.8 270.48 94.8C273.146 94.8 275.013 95.1333 276.08 95.8C277.146 96.4667 277.68 97.7333 277.68 99.6C277.68 101.733 276.68 106.533 274.68 114C273.346 119.333 272.28 124 271.48 128C270.68 132 270.013 136.933 269.48 142.8C273.88 131.333 278.813 122 284.28 114.8C289.746 107.6 295.08 102.467 300.28 99.4C305.613 96.3333 310.48 94.8 314.88 94.8C323.546 94.8 327.88 99.1333 327.88 107.8C327.88 113 326.413 122.4 323.48 136C320.946 147.6 319.68 155.267 319.68 159C319.68 164.333 321.613 167 325.48 167C328.146 167 331.28 165.4 334.88 162.2C338.613 158.867 343.546 153.533 349.68 146.2C351.28 144.333 353.08 143.4 355.08 143.4C356.813 143.4 358.146 144.2 359.08 145.8C360.146 147.4 360.68 149.6 360.68 152.4C360.68 157.733 359.413 161.867 356.88 164.8C351.146 171.867 344.946 177.667 338.28 182.2C331.746 186.733 324.28 189 315.88 189C309.08 189 303.946 187.067 300.48 183.2C297.013 179.2 295.28 173.467 295.28 166C295.28 162.267 296.213 155.6 298.08 146C299.813 137.6 300.68 131.8 300.68 128.6C300.68 126.467 299.946 125.4 298.48 125.4C296.746 125.4 294.28 127.667 291.08 132.2C288.013 136.6 284.813 142.467 281.48 149.8C278.28 157.133 275.68 164.867 273.68 173C272.213 179.267 270.48 183.533 268.48 185.8C266.613 187.933 263.613 189 259.48 189ZM446.498 126.6C448.232 126.6 449.565 127.467 450.498 129.2C451.432 130.933 451.898 133.133 451.898 135.8C451.898 142.2 449.965 146 446.098 147.2C438.098 150 429.298 151.6 419.698 152C417.165 163.2 412.165 172.2 404.698 179C397.232 185.667 388.765 189 379.298 189C371.298 189 364.432 187.067 358.698 183.2C353.098 179.333 348.832 174.2 345.898 167.8C342.965 161.4 341.498 154.467 341.498 147C341.498 136.867 343.432 127.867 347.298 120C351.165 112 356.498 105.8 363.298 101.4C370.098 96.8667 377.632 94.6 385.898 94.6C396.032 94.6 404.165 98.1333 410.298 105.2C416.565 112.133 420.232 120.733 421.298 131C427.565 130.6 435.032 129.267 443.698 127C444.765 126.733 445.698 126.6 446.498 126.6ZM380.898 167.8C385.165 167.8 388.832 166.067 391.898 162.6C395.098 159.133 397.232 154.133 398.298 147.6C394.165 144.8 390.965 141.133 388.698 136.6C386.565 132.067 385.498 127.267 385.498 122.2C385.498 120.067 385.698 117.933 386.098 115.8H385.098C379.765 115.8 375.298 118.4 371.698 123.6C368.232 128.667 366.498 135.867 366.498 145.2C366.498 152.533 367.898 158.133 370.698 162C373.632 165.867 377.032 167.8 380.898 167.8ZM535.686 127.2C536.086 127.067 536.753 127 537.686 127C539.686 127 541.219 127.667 542.286 129C543.353 130.333 543.886 132.133 543.886 134.4C543.886 138.533 543.086 141.8 541.486 144.2C539.886 146.467 537.486 148.133 534.286 149.2C528.153 151.2 521.619 152.2 514.686 152.2C508.819 152.2 503.286 151.4 498.086 149.8C494.219 156.067 489.953 162.533 485.286 169.2C479.953 176.8 475.353 182 471.486 184.8C467.619 187.6 463.219 189 458.286 189C452.819 189 448.486 186.867 445.286 182.6C442.219 178.333 440.286 171.6 439.486 162.4C437.886 143.733 437.086 127.4 437.086 113.4V106.4C437.219 102 438.419 98.9333 440.686 97.2C442.953 95.4667 446.353 94.6 450.886 94.6C454.353 94.6 456.886 95.4 458.486 97C460.219 98.4667 461.086 101 461.086 104.6C461.086 119.933 462.019 139.867 463.886 164.4C471.886 152.533 477.886 143.067 481.886 136C479.886 132.133 478.886 127.533 478.886 122.2C478.886 117.667 479.886 113.267 481.886 109C483.886 104.733 486.619 101.267 490.086 98.6C493.553 95.9333 497.486 94.6 501.886 94.6C505.753 94.6 508.886 96 511.286 98.8C513.686 101.467 514.886 105.4 514.886 110.6C514.886 116.6 513.286 123.467 510.086 131.2C515.153 130.933 521.886 129.933 530.286 128.2L535.686 127.2ZM551.13 189C542.863 189 536.263 186 531.33 180C526.396 174 523.93 166.133 523.93 156.4C523.93 145.733 526.396 135.667 531.33 126.2C536.263 116.6 542.796 108.933 550.93 103.2C559.196 97.3333 567.93 94.4 577.13 94.4C580.063 94.4 581.996 95 582.93 96.2C583.996 97.2667 584.863 99.2667 585.53 102.2C588.33 101.667 591.263 101.4 594.33 101.4C600.863 101.4 604.13 103.733 604.13 108.4C604.13 111.2 603.13 117.867 601.13 128.4C598.063 143.733 596.53 154.4 596.53 160.4C596.53 162.4 596.996 164 597.93 165.2C598.996 166.4 600.33 167 601.93 167C604.463 167 607.53 165.4 611.13 162.2C614.73 158.867 619.596 153.533 625.73 146.2C627.33 144.333 629.13 143.4 631.13 143.4C632.863 143.4 634.196 144.2 635.13 145.8C636.196 147.4 636.73 149.6 636.73 152.4C636.73 157.733 635.463 161.867 632.93 164.8C627.463 171.6 621.663 177.333 615.53 182C609.396 186.667 603.463 189 597.73 189C593.33 189 589.263 187.533 585.53 184.6C581.93 181.533 579.196 177.4 577.33 172.2C570.396 183.4 561.663 189 551.13 189ZM558.33 168.8C561.263 168.8 564.063 167.067 566.73 163.6C569.396 160.133 571.33 155.533 572.53 149.8L579.93 113C574.33 113.133 569.13 115.267 564.33 119.4C559.663 123.4 555.93 128.733 553.13 135.4C550.33 142.067 548.93 149.133 548.93 156.6C548.93 160.733 549.73 163.8 551.33 165.8C553.063 167.8 555.396 168.8 558.33 168.8ZM709.675 143.4C711.408 143.4 712.742 144.2 713.675 145.8C714.742 147.4 715.275 149.6 715.275 152.4C715.275 157.733 714.008 161.867 711.475 164.8C705.742 171.867 699.475 177.667 692.675 182.2C685.875 186.733 678.075 189 669.275 189C642.075 189 628.475 169.867 628.475 131.6C628.475 125.733 628.675 119.8 629.075 113.8H621.275C617.275 113.8 614.542 113.067 613.075 111.6C611.742 110.133 611.075 107.8 611.075 104.6C611.075 97.1333 614.075 93.4 620.075 93.4H631.475C633.742 78.7333 637.208 65.3333 641.875 53.2C646.542 41.0667 652.142 31.4 658.675 24.2C665.342 17 672.475 13.4 680.075 13.4C685.675 13.4 690.075 15.8667 693.275 20.8C696.475 25.7333 698.075 31.9333 698.075 39.4C698.075 60.0667 689.408 78.0667 672.075 93.4H694.475C696.608 93.4 698.142 93.8667 699.075 94.8C700.008 95.7333 700.475 97.4667 700.475 100C700.475 109.2 692.942 113.8 677.875 113.8H653.475C653.208 120.467 653.075 125.667 653.075 129.4C653.075 143.267 654.675 153 657.875 158.6C661.208 164.2 666.408 167 673.475 167C679.208 167 684.275 165.267 688.675 161.8C693.075 158.333 698.275 153.133 704.275 146.2C705.875 144.333 707.675 143.4 709.675 143.4ZM674.675 32.6C672.675 32.6 670.408 35.1333 667.875 40.2C665.475 45.1333 663.142 52.0667 660.875 61C658.742 69.8 656.942 79.6 655.475 90.4C663.342 83.6 669.208 76 673.075 67.6C677.075 59.0667 679.075 51.3333 679.075 44.4C679.075 36.5333 677.608 32.6 674.675 32.6ZM725.191 81.6C719.591 81.6 715.391 80.3333 712.591 77.8C709.791 75.1333 708.391 71.4667 708.391 66.8C708.391 62.1333 710.191 58.2667 713.791 55.2C717.524 52 722.124 50.4 727.591 50.4C732.524 50.4 736.524 51.6 739.591 54C742.657 56.4 744.191 59.8 744.191 64.2C744.191 69.5333 742.457 73.8 738.991 77C735.524 80.0667 730.924 81.6 725.191 81.6ZM723.591 189C714.924 189 708.591 185.933 704.591 179.8C700.724 173.667 698.791 165.533 698.791 155.4C698.791 149.4 699.524 141.733 700.991 132.4C702.591 122.933 704.591 114.133 706.991 106C708.191 101.733 709.791 98.8 711.791 97.2C713.791 95.6 716.991 94.8 721.391 94.8C728.191 94.8 731.591 97.0667 731.591 101.6C731.591 104.933 730.324 112.667 727.791 124.8C724.591 139.467 722.991 149.4 722.991 154.6C722.991 158.6 723.524 161.667 724.591 163.8C725.657 165.933 727.457 167 729.991 167C732.391 167 735.391 165.333 738.991 162C742.591 158.667 747.391 153.4 753.391 146.2C754.991 144.333 756.791 143.4 758.791 143.4C760.524 143.4 761.857 144.2 762.791 145.8C763.857 147.4 764.391 149.6 764.391 152.4C764.391 157.733 763.124 161.867 760.591 164.8C747.391 180.933 735.057 189 723.591 189ZM850.209 126.6C851.943 126.6 853.276 127.467 854.209 129.2C855.143 130.933 855.609 133.133 855.609 135.8C855.609 142.2 853.676 146 849.809 147.2C841.809 150 833.009 151.6 823.409 152C820.876 163.2 815.876 172.2 808.409 179C800.943 185.667 792.476 189 783.009 189C775.009 189 768.143 187.067 762.409 183.2C756.809 179.333 752.543 174.2 749.609 167.8C746.676 161.4 745.209 154.467 745.209 147C745.209 136.867 747.143 127.867 751.009 120C754.876 112 760.209 105.8 767.009 101.4C773.809 96.8667 781.343 94.6 789.609 94.6C799.743 94.6 807.876 98.1333 814.009 105.2C820.276 112.133 823.943 120.733 825.009 131C831.276 130.6 838.743 129.267 847.409 127C848.476 126.733 849.409 126.6 850.209 126.6ZM784.609 167.8C788.876 167.8 792.543 166.067 795.609 162.6C798.809 159.133 800.943 154.133 802.009 147.6C797.876 144.8 794.676 141.133 792.409 136.6C790.276 132.067 789.209 127.267 789.209 122.2C789.209 120.067 789.409 117.933 789.809 115.8H788.809C783.476 115.8 779.009 118.4 775.409 123.6C771.943 128.667 770.209 135.867 770.209 145.2C770.209 152.533 771.609 158.133 774.409 162C777.343 165.867 780.743 167.8 784.609 167.8ZM852.644 189C847.577 189 843.977 186.333 841.844 181C839.844 175.667 838.844 167.133 838.844 155.4C838.844 138.067 841.31 121.6 846.244 106C847.444 102.133 849.377 99.3333 852.044 97.6C854.844 95.7333 858.71 94.8 863.644 94.8C866.31 94.8 868.177 95.1333 869.244 95.8C870.31 96.4667 870.844 97.7333 870.844 99.6C870.844 101.733 869.844 106.533 867.844 114C866.51 119.333 865.444 124 864.644 128C863.844 132 863.177 136.933 862.644 142.8C867.044 131.333 871.977 122 877.444 114.8C882.91 107.6 888.244 102.467 893.444 99.4C898.777 96.3333 903.644 94.8 908.044 94.8C912.31 94.8 915.51 95.9333 917.644 98.2C919.91 100.333 921.044 103.533 921.044 107.8C921.044 111.267 920.31 117.8 918.844 127.4C917.51 135.533 916.444 143.267 915.644 150.6C914.844 157.8 914.444 165.867 914.444 174.8C914.444 179.867 913.377 183.533 911.244 185.8C909.244 187.933 905.91 189 901.244 189C896.844 189 893.644 187.867 891.644 185.6C889.644 183.333 888.644 179.933 888.644 175.4C888.644 170.067 889.577 161.267 891.444 149C893.044 138.333 893.844 131.533 893.844 128.6C893.844 126.467 893.11 125.4 891.644 125.4C889.91 125.4 887.444 127.667 884.244 132.2C881.177 136.6 877.977 142.467 874.644 149.8C871.444 157.133 868.844 164.867 866.844 173C865.377 179.267 863.644 183.533 861.644 185.8C859.777 187.933 856.777 189 852.644 189Z" fill="#4A4A4A"/>
</svg>
