<svg xmlns="http://www.w3.org/2000/svg" xmlns:xlink="http://www.w3.org/1999/xlink" viewBox="0 0 3112 1900" width="3112" height="1900" preserveAspectRatio="xMidYMid meet" style="width: 100%; height: 100%; transform: translate3d(0px, 0px, 0px); content-visibility: visible;"><defs><clipPath id="__lottie_element_364"><rect width="3112" height="1900" x="0" y="0"></rect></clipPath><g id="__lottie_element_373"><g style="display: none;" transform="matrix(8.248189926147461,0,0,4,871.92724609375,1316.5020751953125)" opacity="1"><g opacity="1" transform="matrix(1,0,0,1,47.09600067138672,25.78700065612793)"><path fill="rgb(223,223,223)" fill-opacity="1" d=" M24.481000900268555,-4.6579999923706055 C24.481000900268555,-4.6579999923706055 23.820999145507812,24.66699981689453 23.820999145507812,24.66699981689453 C23.820999145507812,24.66699981689453 -24.481000900268555,24.78700065612793 -24.481000900268555,24.78700065612793 C-24.481000900268555,24.78700065612793 -24.481000900268555,-24.78700065612793 -24.481000900268555,-24.78700065612793 C-24.481000900268555,-24.78700065612793 24.481000900268555,-24.78700065612793 24.481000900268555,-24.78700065612793 C24.481000900268555,-24.78700065612793 24.481000900268555,-17.15999984741211 24.481000900268555,-17.15999984741211"></path><path stroke-linecap="round" stroke-linejoin="round" fill-opacity="0" stroke="rgb(74,73,74)" stroke-opacity="1" stroke-width="2" d=" M24.481000900268555,-4.6579999923706055 C24.481000900268555,-4.6579999923706055 23.820999145507812,24.66699981689453 23.820999145507812,24.66699981689453 C23.820999145507812,24.66699981689453 -24.481000900268555,24.78700065612793 -24.481000900268555,24.78700065612793 C-24.481000900268555,24.78700065612793 -24.481000900268555,-24.78700065612793 -24.481000900268555,-24.78700065612793 C-24.481000900268555,-24.78700065612793 24.481000900268555,-24.78700065612793 24.481000900268555,-24.78700065612793 C24.481000900268555,-24.78700065612793 24.481000900268555,-17.15999984741211 24.481000900268555,-17.15999984741211"></path></g></g></g><g id="__lottie_element_372"><g style="display: none;" transform="matrix(8.248189926147461,0,0,4,871.92724609375,1316.5020751953125)" opacity="1"><g opacity="1" transform="matrix(1,0,0,1,47.09600067138672,25.78700065612793)"><path fill="rgb(223,223,223)" fill-opacity="1" d=" M24.481000900268555,-4.6579999923706055 C24.481000900268555,-4.6579999923706055 23.820999145507812,24.66699981689453 23.820999145507812,24.66699981689453 C23.820999145507812,24.66699981689453 -24.481000900268555,24.78700065612793 -24.481000900268555,24.78700065612793 C-24.481000900268555,24.78700065612793 -24.481000900268555,-24.78700065612793 -24.481000900268555,-24.78700065612793 C-24.481000900268555,-24.78700065612793 24.481000900268555,-24.78700065612793 24.481000900268555,-24.78700065612793 C24.481000900268555,-24.78700065612793 24.481000900268555,-17.15999984741211 24.481000900268555,-17.15999984741211"></path><path stroke-linecap="round" stroke-linejoin="round" fill-opacity="0" stroke="rgb(74,73,74)" stroke-opacity="1" stroke-width="2" d=" M24.481000900268555,-4.6579999923706055 C24.481000900268555,-4.6579999923706055 23.820999145507812,24.66699981689453 23.820999145507812,24.66699981689453 C23.820999145507812,24.66699981689453 -24.481000900268555,24.78700065612793 -24.481000900268555,24.78700065612793 C-24.481000900268555,24.78700065612793 -24.481000900268555,-24.78700065612793 -24.481000900268555,-24.78700065612793 C-24.481000900268555,-24.78700065612793 24.481000900268555,-24.78700065612793 24.481000900268555,-24.78700065612793 C24.481000900268555,-24.78700065612793 24.481000900268555,-17.15999984741211 24.481000900268555,-17.15999984741211"></path></g></g></g><g id="__lottie_element_380"><g style="display: none;" transform="matrix(8.248189926147461,0,0,4,871.92724609375,1316.5020751953125)" opacity="1"><g opacity="1" transform="matrix(1,0,0,1,47.09600067138672,25.78700065612793)"><path fill="rgb(223,223,223)" fill-opacity="1" d=" M24.481000900268555,-4.6579999923706055 C24.481000900268555,-4.6579999923706055 23.820999145507812,24.66699981689453 23.820999145507812,24.66699981689453 C23.820999145507812,24.66699981689453 -24.481000900268555,24.78700065612793 -24.481000900268555,24.78700065612793 C-24.481000900268555,24.78700065612793 -24.481000900268555,-24.78700065612793 -24.481000900268555,-24.78700065612793 C-24.481000900268555,-24.78700065612793 24.481000900268555,-24.78700065612793 24.481000900268555,-24.78700065612793 C24.481000900268555,-24.78700065612793 24.481000900268555,-17.15999984741211 24.481000900268555,-17.15999984741211"></path><path stroke-linecap="round" stroke-linejoin="round" fill-opacity="0" stroke="rgb(74,73,74)" stroke-opacity="1" stroke-width="2" d=" M24.481000900268555,-4.6579999923706055 C24.481000900268555,-4.6579999923706055 23.820999145507812,24.66699981689453 23.820999145507812,24.66699981689453 C23.820999145507812,24.66699981689453 -24.481000900268555,24.78700065612793 -24.481000900268555,24.78700065612793 C-24.481000900268555,24.78700065612793 -24.481000900268555,-24.78700065612793 -24.481000900268555,-24.78700065612793 C-24.481000900268555,-24.78700065612793 24.481000900268555,-24.78700065612793 24.481000900268555,-24.78700065612793 C24.481000900268555,-24.78700065612793 24.481000900268555,-17.15999984741211 24.481000900268555,-17.15999984741211"></path></g></g></g><g id="__lottie_element_388"><g style="display: none;" transform="matrix(8.248189926147461,0,0,4,871.92724609375,1316.5020751953125)" opacity="1"><g opacity="1" transform="matrix(1,0,0,1,47.09600067138672,25.78700065612793)"><path fill="rgb(223,223,223)" fill-opacity="1" d=" M24.481000900268555,-4.6579999923706055 C24.481000900268555,-4.6579999923706055 23.820999145507812,24.66699981689453 23.820999145507812,24.66699981689453 C23.820999145507812,24.66699981689453 -24.481000900268555,24.78700065612793 -24.481000900268555,24.78700065612793 C-24.481000900268555,24.78700065612793 -24.481000900268555,-24.78700065612793 -24.481000900268555,-24.78700065612793 C-24.481000900268555,-24.78700065612793 24.481000900268555,-24.78700065612793 24.481000900268555,-24.78700065612793 C24.481000900268555,-24.78700065612793 24.481000900268555,-17.15999984741211 24.481000900268555,-17.15999984741211"></path><path stroke-linecap="round" stroke-linejoin="round" fill-opacity="0" stroke="rgb(74,73,74)" stroke-opacity="1" stroke-width="2" d=" M24.481000900268555,-4.6579999923706055 C24.481000900268555,-4.6579999923706055 23.820999145507812,24.66699981689453 23.820999145507812,24.66699981689453 C23.820999145507812,24.66699981689453 -24.481000900268555,24.78700065612793 -24.481000900268555,24.78700065612793 C-24.481000900268555,24.78700065612793 -24.481000900268555,-24.78700065612793 -24.481000900268555,-24.78700065612793 C-24.481000900268555,-24.78700065612793 24.481000900268555,-24.78700065612793 24.481000900268555,-24.78700065612793 C24.481000900268555,-24.78700065612793 24.481000900268555,-17.15999984741211 24.481000900268555,-17.15999984741211"></path></g></g></g><g id="__lottie_element_393"><g style="display: none;" transform="matrix(8.248189926147461,0,0,4,871.92724609375,1316.5020751953125)" opacity="1"><g opacity="1" transform="matrix(1,0,0,1,47.09600067138672,25.78700065612793)"><path fill="rgb(223,223,223)" fill-opacity="1" d=" M24.481000900268555,-4.6579999923706055 C24.481000900268555,-4.6579999923706055 23.820999145507812,24.66699981689453 23.820999145507812,24.66699981689453 C23.820999145507812,24.66699981689453 -24.481000900268555,24.78700065612793 -24.481000900268555,24.78700065612793 C-24.481000900268555,24.78700065612793 -24.481000900268555,-24.78700065612793 -24.481000900268555,-24.78700065612793 C-24.481000900268555,-24.78700065612793 24.481000900268555,-24.78700065612793 24.481000900268555,-24.78700065612793 C24.481000900268555,-24.78700065612793 24.481000900268555,-17.15999984741211 24.481000900268555,-17.15999984741211"></path><path stroke-linecap="round" stroke-linejoin="round" fill-opacity="0" stroke="rgb(74,73,74)" stroke-opacity="1" stroke-width="2" d=" M24.481000900268555,-4.6579999923706055 C24.481000900268555,-4.6579999923706055 23.820999145507812,24.66699981689453 23.820999145507812,24.66699981689453 C23.820999145507812,24.66699981689453 -24.481000900268555,24.78700065612793 -24.481000900268555,24.78700065612793 C-24.481000900268555,24.78700065612793 -24.481000900268555,-24.78700065612793 -24.481000900268555,-24.78700065612793 C-24.481000900268555,-24.78700065612793 24.481000900268555,-24.78700065612793 24.481000900268555,-24.78700065612793 C24.481000900268555,-24.78700065612793 24.481000900268555,-17.15999984741211 24.481000900268555,-17.15999984741211"></path></g></g></g><mask id="__lottie_element_380_1" mask-type="alpha"><use xlink:href="#__lottie_element_380"></use></mask><g id="__lottie_element_398"><g style="display: none;" transform="matrix(8.248189926147461,0,0,4,871.92724609375,1316.5020751953125)" opacity="1"><g opacity="1" transform="matrix(1,0,0,1,47.09600067138672,25.78700065612793)"><path fill="rgb(223,223,223)" fill-opacity="1" d=" M24.481000900268555,-4.6579999923706055 C24.481000900268555,-4.6579999923706055 23.820999145507812,24.66699981689453 23.820999145507812,24.66699981689453 C23.820999145507812,24.66699981689453 -24.481000900268555,24.78700065612793 -24.481000900268555,24.78700065612793 C-24.481000900268555,24.78700065612793 -24.481000900268555,-24.78700065612793 -24.481000900268555,-24.78700065612793 C-24.481000900268555,-24.78700065612793 24.481000900268555,-24.78700065612793 24.481000900268555,-24.78700065612793 C24.481000900268555,-24.78700065612793 24.481000900268555,-17.15999984741211 24.481000900268555,-17.15999984741211"></path><path stroke-linecap="round" stroke-linejoin="round" fill-opacity="0" stroke="rgb(74,73,74)" stroke-opacity="1" stroke-width="2" d=" M24.481000900268555,-4.6579999923706055 C24.481000900268555,-4.6579999923706055 23.820999145507812,24.66699981689453 23.820999145507812,24.66699981689453 C23.820999145507812,24.66699981689453 -24.481000900268555,24.78700065612793 -24.481000900268555,24.78700065612793 C-24.481000900268555,24.78700065612793 -24.481000900268555,-24.78700065612793 -24.481000900268555,-24.78700065612793 C-24.481000900268555,-24.78700065612793 24.481000900268555,-24.78700065612793 24.481000900268555,-24.78700065612793 C24.481000900268555,-24.78700065612793 24.481000900268555,-17.15999984741211 24.481000900268555,-17.15999984741211"></path></g></g></g><mask id="__lottie_element_398_1" mask-type="alpha"><use xlink:href="#__lottie_element_398"></use></mask><g id="__lottie_element_404"><g style="display: none;" transform="matrix(8.248189926147461,0,0,4,871.92724609375,1316.5020751953125)" opacity="1"><g opacity="1" transform="matrix(1,0,0,1,47.09600067138672,25.78700065612793)"><path fill="rgb(223,223,223)" fill-opacity="1" d=" M24.481000900268555,-4.6579999923706055 C24.481000900268555,-4.6579999923706055 23.820999145507812,24.66699981689453 23.820999145507812,24.66699981689453 C23.820999145507812,24.66699981689453 -24.481000900268555,24.78700065612793 -24.481000900268555,24.78700065612793 C-24.481000900268555,24.78700065612793 -24.481000900268555,-24.78700065612793 -24.481000900268555,-24.78700065612793 C-24.481000900268555,-24.78700065612793 24.481000900268555,-24.78700065612793 24.481000900268555,-24.78700065612793 C24.481000900268555,-24.78700065612793 24.481000900268555,-17.15999984741211 24.481000900268555,-17.15999984741211"></path><path stroke-linecap="round" stroke-linejoin="round" fill-opacity="0" stroke="rgb(74,73,74)" stroke-opacity="1" stroke-width="2" d=" M24.481000900268555,-4.6579999923706055 C24.481000900268555,-4.6579999923706055 23.820999145507812,24.66699981689453 23.820999145507812,24.66699981689453 C23.820999145507812,24.66699981689453 -24.481000900268555,24.78700065612793 -24.481000900268555,24.78700065612793 C-24.481000900268555,24.78700065612793 -24.481000900268555,-24.78700065612793 -24.481000900268555,-24.78700065612793 C-24.481000900268555,-24.78700065612793 24.481000900268555,-24.78700065612793 24.481000900268555,-24.78700065612793 C24.481000900268555,-24.78700065612793 24.481000900268555,-17.15999984741211 24.481000900268555,-17.15999984741211"></path></g></g></g><mask id="__lottie_element_404_1" mask-type="alpha"><use xlink:href="#__lottie_element_404"></use></mask><g id="__lottie_element_414"><g style="display: none;" transform="matrix(8.248189926147461,0,0,4,874.4264526367188,1316.5020751953125)" opacity="1"><g opacity="1" transform="matrix(1,0,0,1,47.09600067138672,25.78700065612793)"><path fill="rgb(223,223,223)" fill-opacity="1" d=" M24.481000900268555,-4.6579999923706055 C24.481000900268555,-4.6579999923706055 23.820999145507812,24.66699981689453 23.820999145507812,24.66699981689453 C23.820999145507812,24.66699981689453 -24.481000900268555,24.78700065612793 -24.481000900268555,24.78700065612793 C-24.481000900268555,24.78700065612793 -24.481000900268555,-24.78700065612793 -24.481000900268555,-24.78700065612793 C-24.481000900268555,-24.78700065612793 24.481000900268555,-24.78700065612793 24.481000900268555,-24.78700065612793 C24.481000900268555,-24.78700065612793 24.481000900268555,-17.15999984741211 24.481000900268555,-17.15999984741211"></path><path stroke-linecap="round" stroke-linejoin="round" fill-opacity="0" stroke="rgb(74,73,74)" stroke-opacity="1" stroke-width="2" d=" M24.481000900268555,-4.6579999923706055 C24.481000900268555,-4.6579999923706055 23.820999145507812,24.66699981689453 23.820999145507812,24.66699981689453 C23.820999145507812,24.66699981689453 -24.481000900268555,24.78700065612793 -24.481000900268555,24.78700065612793 C-24.481000900268555,24.78700065612793 -24.481000900268555,-24.78700065612793 -24.481000900268555,-24.78700065612793 C-24.481000900268555,-24.78700065612793 24.481000900268555,-24.78700065612793 24.481000900268555,-24.78700065612793 C24.481000900268555,-24.78700065612793 24.481000900268555,-17.15999984741211 24.481000900268555,-17.15999984741211"></path></g></g></g><mask id="__lottie_element_373_1" mask-type="alpha"><use xlink:href="#__lottie_element_373"></use></mask><mask id="__lottie_element_414_1" mask-type="alpha"><use xlink:href="#__lottie_element_414"></use></mask><mask id="__lottie_element_393_1" mask-type="alpha"><use xlink:href="#__lottie_element_393"></use></mask><mask id="__lottie_element_388_1" mask-type="alpha"><use xlink:href="#__lottie_element_388"></use></mask><mask id="__lottie_element_372_1" mask-type="alpha"><use xlink:href="#__lottie_element_372"></use></mask></defs><g clip-path="url(#__lottie_element_364)"><g style="display: block;" transform="matrix(4,0,0,4,1072,1324.0020751953125)" opacity="1"><g opacity="1" transform="matrix(1,0,0,1,47.09600067138672,25.78700065612793)"><path fill="rgb(223,223,223)" fill-opacity="1" d=" M24.481000900268555,-4.6579999923706055 C24.481000900268555,-4.6579999923706055 23.820999145507812,24.66699981689453 23.820999145507812,24.66699981689453 C23.820999145507812,24.66699981689453 -24.481000900268555,24.78700065612793 -24.481000900268555,24.78700065612793 C-24.481000900268555,24.78700065612793 -24.481000900268555,-24.78700065612793 -24.481000900268555,-24.78700065612793 C-24.481000900268555,-24.78700065612793 24.481000900268555,-24.78700065612793 24.481000900268555,-24.78700065612793 C24.481000900268555,-24.78700065612793 24.481000900268555,-17.15999984741211 24.481000900268555,-17.15999984741211"></path><path stroke-linecap="round" stroke-linejoin="round" fill-opacity="0" stroke="rgb(74,73,74)" stroke-opacity="1" stroke-width="2" d=" M24.481000900268555,-4.6579999923706055 C24.481000900268555,-4.6579999923706055 23.820999145507812,24.66699981689453 23.820999145507812,24.66699981689453 C23.820999145507812,24.66699981689453 -24.481000900268555,24.78700065612793 -24.481000900268555,24.78700065612793 C-24.481000900268555,24.78700065612793 -24.481000900268555,-24.78700065612793 -24.481000900268555,-24.78700065612793 C-24.481000900268555,-24.78700065612793 24.481000900268555,-24.78700065612793 24.481000900268555,-24.78700065612793 C24.481000900268555,-24.78700065612793 24.481000900268555,-17.15999984741211 24.481000900268555,-17.15999984741211"></path></g></g><g mask="url(#__lottie_element_373_1)" style="display: block;"><g transform="matrix(0.26282066106796265,-0.3896476626396179,0.3896476626396179,0.26282066106796265,1452.198974609375,1794.7490234375)" opacity="1"><g opacity="1" transform="matrix(1,0,0,1,-49.65999984741211,-332.8590087890625)"><path fill="rgb(255,255,255)" fill-opacity="1" d=" M27.15999984741211,-93.14099884033203 C15.684000015258789,-91.75700378417969 7.197000026702881,-84.77799987792969 0.3230000138282776,-76.13400268554688 C-6.551000118255615,-67.48999786376953 -11.812999725341797,-57.18199920654297 -16.84000015258789,-49.14099884033203 C-29.45800018310547,-28.95800018310547 -39.965999603271484,-3.0910000801086426 -44.816001892089844,25.297000885009766 C-49.66600036621094,53.685001373291016 -48.856998443603516,84.59300231933594 -38.84000015258789,114.85900115966797 C-21.006000518798828,168.7449951171875 11.82699966430664,201.15499877929688 28.15999984741211,250.85899353027344 C38.87200164794922,283.4570007324219 30.47800064086914,329.2439880371094 73.16000366210938,326.8590087890625 C115.54399871826172,324.4909973144531 106.63800048828125,275.010009765625 97.16000366210938,240.85899353027344 C80.13099670410156,179.50100708007812 41.54399871826172,142.96299743652344 26.15999984741211,87.85900115966797 C14.041999816894531,44.45399856567383 32.944000244140625,2.9730000495910645 50.15999984741211,-24.141000747680664 C53.52899932861328,-29.44700050354004 66.81500244140625,-42.637001037597656 66.16000366210938,-60.14099884033203 C65.3239974975586,-82.47699737548828 44.48699951171875,-95.23100280761719 27.15999984741211,-93.14099884033203z"></path><path stroke-linecap="butt" stroke-linejoin="miter" fill-opacity="0" stroke-miterlimit="4" stroke="rgb(73,73,73)" stroke-opacity="1" stroke-width="16" d=" M27.15999984741211,-93.14099884033203 C15.684000015258789,-91.75700378417969 7.197000026702881,-84.77799987792969 0.3230000138282776,-76.13400268554688 C-6.551000118255615,-67.48999786376953 -11.812999725341797,-57.18199920654297 -16.84000015258789,-49.14099884033203 C-29.45800018310547,-28.95800018310547 -39.965999603271484,-3.0910000801086426 -44.816001892089844,25.297000885009766 C-49.66600036621094,53.685001373291016 -48.856998443603516,84.59300231933594 -38.84000015258789,114.85900115966797 C-21.006000518798828,168.7449951171875 11.82699966430664,201.15499877929688 28.15999984741211,250.85899353027344 C38.87200164794922,283.4570007324219 30.47800064086914,329.2439880371094 73.16000366210938,326.8590087890625 C115.54399871826172,324.4909973144531 106.63800048828125,275.010009765625 97.16000366210938,240.85899353027344 C80.13099670410156,179.50100708007812 41.54399871826172,142.96299743652344 26.15999984741211,87.85900115966797 C14.041999816894531,44.45399856567383 32.944000244140625,2.9730000495910645 50.15999984741211,-24.141000747680664 C53.52899932861328,-29.44700050354004 66.81500244140625,-42.637001037597656 66.16000366210938,-60.14099884033203 C65.3239974975586,-82.47699737548828 44.48699951171875,-95.23100280761719 27.15999984741211,-93.14099884033203z"></path></g></g></g><g mask="url(#__lottie_element_414_1)" style="display: none;"><g transform="matrix(-0.8037309050559998,-3.9184200763702393,3.9184200763702393,-0.8037309050559998,1176.4334716796875,1745.30517578125)" opacity="1"><g opacity="1" transform="matrix(1,0,0,1,0,0)"><g opacity="1" transform="matrix(1,0,0,1,53.57699966430664,51.499000549316406)"><path fill="rgb(255,255,255)" fill-opacity="1" d=" M-4.098999977111816,-2.3299999237060547 C-4.098999977111816,-2.3299999237060547 -6.839000225067139,-0.3659999966621399 -5.913000106811523,3.6540000438690186 C-4.651000022888184,9.13599967956543 5.751999855041504,8.78600025177002 6.311999797821045,-0.4449999928474426 C6.839000225067139,-9.13599967956543 -5.400000095367432,-9.098999977111816 -5.400000095367432,-9.098999977111816"></path></g><g opacity="1" transform="matrix(1,0,0,1,53.62900161743164,53.47100067138672)"><path fill="rgb(235,235,235)" fill-opacity="1" d=" M-4.7170000076293945,-6.192999839782715 C-4.7170000076293945,-6.192999839782715 -4.703999996185303,-6.195000171661377 -4.681000232696533,-6.197999954223633 C-1.8509999513626099,-6.585999965667725 0.1940000057220459,-3.6730000972747803 -0.9449999928474426,-1.0549999475479126 C-2.311000108718872,2.0850000381469727 -0.7390000224113464,4.099999904632568 3.180999994277954,4.005000114440918 C1.652999997138977,5.059999942779541 -1.7599999904632568,6.01800012588501 -3.4600000381469727,4.835999965667725 C-5.159999847412109,3.6540000438690186 -6.51800012588501,-0.8679999709129333 -6.51800012588501,-0.8679999709129333 C-6.51800012588501,-0.8679999709129333 -4.7170000076293945,-6.192999839782715 -4.7170000076293945,-6.192999839782715z"></path></g><g opacity="1" transform="matrix(1,0,0,1,53.57699966430664,51.499000549316406)"><path stroke-linecap="round" stroke-linejoin="round" fill-opacity="0" stroke="rgb(73,73,73)" stroke-opacity="1" stroke-width="2" d=" M-4.098999977111816,-2.3299999237060547 C-4.098999977111816,-2.3299999237060547 -6.839000225067139,-0.3659999966621399 -5.913000106811523,3.6540000438690186 C-4.651000022888184,9.13599967956543 5.751999855041504,8.78600025177002 6.311999797821045,-0.4449999928474426 C6.839000225067139,-9.13599967956543 -5.400000095367432,-9.098999977111816 -5.400000095367432,-9.098999977111816"></path></g></g></g></g><g style="display: none;" transform="matrix(-3.339939594268799,-2.2010915279388428,2.2010915279388428,-3.339939594268799,1388.394287109375,1795.454345703125)" opacity="1"><g opacity="1" transform="matrix(1,0,0,1,0,0)"><g opacity="1" transform="matrix(1,0,0,1,53.57699966430664,51.499000549316406)"><path fill="rgb(255,255,255)" fill-opacity="1" d=" M-4.098999977111816,-2.3299999237060547 C-4.098999977111816,-2.3299999237060547 -6.839000225067139,-0.3659999966621399 -5.913000106811523,3.6540000438690186 C-4.651000022888184,9.13599967956543 5.751999855041504,8.78600025177002 6.311999797821045,-0.4449999928474426 C6.611999988555908,-3.9600000381469727 4.598999977111816,-5.704999923706055 3.00600004196167,-6.5279998779296875"></path><path stroke-linecap="round" stroke-linejoin="round" fill-opacity="0" stroke="rgb(73,73,73)" stroke-opacity="1" stroke-width="2" d=" M-4.098999977111816,-2.3299999237060547 C-4.098999977111816,-2.3299999237060547 -6.839000225067139,-0.3659999966621399 -5.913000106811523,3.6540000438690186 C-4.651000022888184,9.13599967956543 5.751999855041504,8.78600025177002 6.311999797821045,-0.4449999928474426 C6.611999988555908,-3.9600000381469727 4.598999977111816,-5.704999923706055 3.00600004196167,-6.5279998779296875"></path></g></g><g opacity="1" transform="matrix(1,0,0,1,53.62900161743164,53.47100067138672)"><path fill="rgb(74,74,74)" fill-opacity="0.04" d=" M-4.197999954223633,-4.96999979019165 C-4.197999954223633,-4.96999979019165 -3.7699999809265137,-5.256999969482422 -3.746999979019165,-5.260000228881836 C-0.9169999957084656,-5.6479997634887695 0.1940000057220459,-3.6730000972747803 -0.9449999928474426,-1.0549999475479126 C-2.311000108718872,2.0850000381469727 -0.7390000224113464,4.099999904632568 3.180999994277954,4.005000114440918 C1.652999997138977,5.059999942779541 -1.7599999904632568,6.01800012588501 -3.4600000381469727,4.835999965667725 C-5.159999847412109,3.6540000438690186 -6.51800012588501,-0.8679999709129333 -6.51800012588501,-0.8679999709129333 C-6.51800012588501,-0.8679999709129333 -4.197999954223633,-4.96999979019165 -4.197999954223633,-4.96999979019165z"></path></g></g><g mask="url(#__lottie_element_388_1)" style="display: none;"><g transform="matrix(4,0,0,4,1071.9989013671875,1519.0009765625)" opacity="1"><g opacity="1" transform="matrix(1,0,0,1,0,0)"><g opacity="1" transform="matrix(1,0,0,1,52.53900146484375,36.066001892089844)"><path fill="rgb(255,255,255)" fill-opacity="1" d=" M-1.774999976158142,14.456999778747559 C-1.774999976158142,14.456999778747559 15.244999885559082,12.081999778747559 15.244999885559082,12.081999778747559 C15.244999885559082,12.081999778747559 21.420000076293945,-5.619999885559082 21.420000076293945,-5.619999885559082 C21.420000076293945,-5.619999885559082 5.710999965667725,-14.456999778747559 1.6710000038146973,-11.28499984741211 C-0.8830000162124634,-9.279000282287598 -6.5320000648498535,-7.5970001220703125 -11.82699966430664,-4.810999870300293 C-18,-1.562999963760376 -21.8700008392334,4.835999965667725 -21.8700008392334,11.812000274658203 C-21.8700008392334,11.812000274658203 -21.8700008392334,14.456999778747559 -21.8700008392334,14.456999778747559 C-21.8700008392334,14.456999778747559 -8.53600025177002,14.456999778747559 -8.53600025177002,14.456999778747559"></path></g><g opacity="1" transform="matrix(1,0,0,1,52.53799819946289,41.154998779296875)"><path fill="rgb(74,74,74)" fill-opacity="0.06" d=" M-18.985000610351562,-2.6630001068115234 C-18.985000610351562,-2.6630001068115234 -18.297000885009766,2.686000108718872 -18.297000885009766,2.686000108718872 C-18.297000885009766,2.686000108718872 11.984999656677246,2.686000108718872 11.984999656677246,2.686000108718872 C11.984999656677246,2.686000108718872 18.39900016784668,-7.439000129699707 18.39900016784668,-7.439000129699707 C18.39900016784668,-7.439000129699707 19.454999923706055,-3.2200000286102295 19.454999923706055,-3.2200000286102295 C19.454999923706055,-3.2200000286102295 15.673999786376953,4.261000156402588 15.673999786376953,4.261000156402588 C15.673999786376953,4.261000156402588 17.378000259399414,7.624000072479248 17.378000259399414,7.624000072479248 C17.378000259399414,7.624000072479248 15.706000328063965,9.394000053405762 15.706000328063965,9.394000053405762 C15.706000328063965,9.394000053405762 9.357999801635742,9.217000007629395 9.357999801635742,9.217000007629395 C9.357999801635742,9.217000007629395 -21.957000732421875,9.859999656677246 -21.957000732421875,9.859999656677246 C-21.957000732421875,9.859999656677246 -21.433000564575195,2.5880000591278076 -21.433000564575195,2.5880000591278076 C-21.433000564575195,2.5880000591278076 -19.31399917602539,-3.867000102996826 -19.31399917602539,-3.867000102996826 C-19.31399917602539,-3.867000102996826 -18.985000610351562,-2.6630001068115234 -18.985000610351562,-2.6630001068115234z"></path></g><g opacity="1" transform="matrix(1,0,0,1,52.53900146484375,36.066001892089844)"><path stroke-linecap="round" stroke-linejoin="round" fill-opacity="0" stroke="rgb(73,73,73)" stroke-opacity="1" stroke-width="2" d=" M-1.774999976158142,14.456999778747559 C-1.774999976158142,14.456999778747559 14.869999885559082,11.956999778747559 14.869999885559082,11.956999778747559 C14.869999885559082,11.956999778747559 21.420000076293945,-5.619999885559082 21.420000076293945,-5.619999885559082 C21.420000076293945,-5.619999885559082 5.710999965667725,-14.456999778747559 1.6710000038146973,-11.28499984741211 C-0.8830000162124634,-9.279000282287598 -6.5320000648498535,-7.5970001220703125 -11.82699966430664,-4.810999870300293 C-18,-1.562999963760376 -21.8700008392334,4.835999965667725 -21.8700008392334,11.812000274658203 C-21.8700008392334,11.812000274658203 -21.8700008392334,14.456999778747559 -21.8700008392334,14.456999778747559 C-21.8700008392334,14.456999778747559 -8.53600025177002,14.456999778747559 -8.53600025177002,14.456999778747559"></path></g></g></g></g><g mask="url(#__lottie_element_404_1)" style="display: none;"><g transform="matrix(3.9507534503936768,-0.6257378458976746,0.6257378458976746,3.9507534503936768,1040.65087890625,1559.6942138671875)" opacity="1"><g opacity="1" transform="matrix(1,0,0,1,69.1760025024414,17.347000122070312)"><g opacity="1" transform="matrix(1,0,0,1,69.1760025024414,17.347000122070312)"><path fill="rgb(255,255,255)" fill-opacity="1" d=" M-4.51200008392334,4.810999870300293 C-4.51200008392334,4.810999870300293 4.51200008392334,5.572000026702881 4.434000015258789,4.314000129699707 C4.230999946594238,1.0410000085830688 3.4790000915527344,-4.906000137329102 0.7049999833106995,-5.298999786376953 C-1.215000033378601,-5.572000026702881 -1.9220000505447388,-4.560999870300293 -2.630000114440918,-3.197000026702881"></path></g><path fill="rgb(255,255,255)" fill-opacity="1" d=" M-4.51200008392334,4.810999870300293 C-4.51200008392334,4.810999870300293 4.51200008392334,5.572000026702881 4.434000015258789,4.314000129699707 C4.230999946594238,1.0410000085830688 3.4790000915527344,-4.906000137329102 0.7049999833106995,-5.298999786376953 C-1.215000033378601,-5.572000026702881 -1.9220000505447388,-4.560999870300293 -2.630000114440918,-3.197000026702881"></path><path stroke-linecap="round" stroke-linejoin="round" fill-opacity="0" stroke="rgb(73,73,73)" stroke-opacity="1" stroke-width="2" d=" M-4.51200008392334,4.810999870300293 C-4.51200008392334,4.810999870300293 4.51200008392334,5.572000026702881 4.434000015258789,4.314000129699707 C4.230999946594238,1.0410000085830688 3.4790000915527344,-4.906000137329102 0.7049999833106995,-5.298999786376953 C-1.215000033378601,-5.572000026702881 -1.9220000505447388,-4.560999870300293 -2.630000114440918,-3.197000026702881"></path></g></g></g><g mask="url(#__lottie_element_393_1)" style="display: none;"><g transform="matrix(3.9507534503936768,-0.6257378458976746,0.6257378458976746,3.9507534503936768,1045.095458984375,1558.990234375)" opacity="1"><g opacity="1" transform="matrix(1,0,0,1,0,0)"><g opacity="1" transform="matrix(1,0,0,1,62.125999450683594,30.725000381469727)"><path fill="rgb(255,255,255)" fill-opacity="1" d=" M-15.654999732971191,6.599999904632568 C-16.829999923706055,3.5829999446868896 -17.332000732421875,-1.0440000295639038 -15.095000267028809,-5.126999855041504 C-15.36299991607666,-8.557000160217285 -14.182999610900879,-7.676000118255615 -13.265000343322754,-9.166999816894531 C-11.656999588012695,-11.777999877929688 -8.694999694824219,-12.902999877929688 -5.689000129699707,-13.505999565124512 C2.3399999141693115,-15.121000289916992 8.354000091552734,-12.977999687194824 12.262999534606934,-7.113999843597412 C17.332000732421875,0.492000013589859 13.272000312805176,8.744999885559082 11.074000358581543,11.543999671936035 C9.984999656677246,12.932000160217285 8.317000389099121,14.692000389099121 7.697999954223633,15.121000289916992"></path></g><g opacity="1" transform="matrix(1,0,0,1,68.21399688720703,31.27199935913086)"><path fill="rgb(74,74,74)" fill-opacity="0.07" d=" M-10.13700008392334,-13.005999565124512 C-10.13700008392334,-13.005999565124512 9.406999588012695,-10.225000381469727 1.9019999504089355,7.4079999923706055 C-0.17000000178813934,10.354999542236328 -1.0820000171661377,12.22700023651123 -1.3389999866485596,13.402000427246094 C-1.0269999504089355,13.416000366210938 1.1299999952316284,15.055000305175781 1.1299999952316284,15.055000305175781 C1.1299999952316284,15.055000305175781 8.723999977111816,5.485000133514404 9.098999977111816,0.5130000114440918 C9.473999977111816,-4.459000110626221 4.236000061035156,-12.416000366210938 -1.8949999809265137,-14.281000137329102 C-8.026000022888184,-16.145999908447266 -10.13700008392334,-13.005999565124512 -10.13700008392334,-13.005999565124512z"></path></g><g opacity="1" transform="matrix(1,0,0,1,62.125999450683594,30.725000381469727)"><path stroke-linecap="round" stroke-linejoin="round" fill-opacity="0" stroke="rgb(73,73,73)" stroke-opacity="1" stroke-width="2" d=" M-15.654999732971191,6.599999904632568 C-16.829999923706055,3.5829999446868896 -17.332000732421875,-1.0440000295639038 -15.095000267028809,-5.126999855041504 C-15.36299991607666,-8.557000160217285 -14.182999610900879,-7.676000118255615 -13.265000343322754,-9.166999816894531 C-11.656999588012695,-11.777999877929688 -8.694999694824219,-12.902999877929688 -5.689000129699707,-13.505999565124512 C2.3399999141693115,-15.121000289916992 8.354000091552734,-12.977999687194824 12.262999534606934,-7.113999843597412 C17.332000732421875,0.492000013589859 13.272000312805176,8.744999885559082 11.074000358581543,11.543999671936035 C9.984999656677246,12.932000160217285 8.317000389099121,14.692000389099121 7.697999954223633,15.121000289916992"></path></g></g></g></g><g mask="url(#__lottie_element_398_1)" style="display: none;"><g transform="matrix(3.9507534503936768,-0.6257378458976746,0.6257378458976746,3.9507534503936768,1045.58935546875,1558.9119873046875)" opacity="1"><g opacity="1" transform="matrix(1,0,0,1,50.637001037597656,19.28499984741211)"><path fill="rgb(255,255,255)" fill-opacity="1" d=" M5.254000186920166,-0.5960000157356262 C2.9690001010894775,-3.0929999351501465 -0.7310000061988831,-6.313000202178955 -2.9670000076293945,-4.705999851226807 C-5.254000186920166,-3.063999891281128 -3.555999994277954,3.134999990463257 -3.6059999465942383,6.314000129699707"></path><path stroke-linecap="round" stroke-linejoin="round" fill-opacity="0" stroke="rgb(73,73,73)" stroke-opacity="1" stroke-width="2" d=" M5.254000186920166,-0.5960000157356262 C2.9690001010894775,-3.0929999351501465 -0.7310000061988831,-6.313000202178955 -2.9670000076293945,-4.705999851226807 C-5.254000186920166,-3.063999891281128 -3.555999994277954,3.134999990463257 -3.6059999465942383,6.314000129699707"></path></g></g></g><g mask="url(#__lottie_element_380_1)" style="display: none;"><g transform="matrix(3.9507534503936768,-0.6257378458976746,0.6257378458976746,3.9507534503936768,1045.095458984375,1558.990234375)" opacity="1"><g opacity="1" transform="matrix(1,0,0,1,0,0)"><g opacity="1" transform="matrix(1,0,0,1,66.54900360107422,32.33700180053711)"><path stroke-linecap="round" stroke-linejoin="round" fill-opacity="0" stroke="rgb(73,73,73)" stroke-opacity="1" stroke-width="1.5" d=" M-3.568000078201294,-1.065999984741211 C-3.319000005722046,0.9359999895095825 -0.0020000000949949026,1.4780000448226929 0.2980000078678131,-1.4789999723434448 C0.546999990940094,0.47999998927116394 3.319000005722046,1.1460000276565552 3.568000078201294,-1.3480000495910645"></path></g><g opacity="1" transform="matrix(1,0,0,1,0,0)"><path stroke-linecap="round" stroke-linejoin="round" fill-opacity="0" stroke="rgb(73,73,73)" stroke-opacity="1" stroke-width="1.5" d=" M66.4229965209961,30.132999420166016 C66.4229965209961,30.132999420166016 67.2959976196289,30.132999420166016 67.2959976196289,30.132999420166016"></path></g></g><g opacity="1" transform="matrix(1,0,0,1,59.42900085449219,30.142000198364258)"><path fill="rgb(74,74,74)" fill-opacity="1" d=" M0.5460000038146973,-0.3385000228881836 C0.5460000038146973,-0.3385000228881836 0.5460000038146973,0.3385000228881836 0.5460000038146973,0.3385000228881836 C0.5460000038146973,0.6398374438285828 0.3013373911380768,0.8845000267028809 0,0.8845000267028809 C0,0.8845000267028809 0,0.8845000267028809 0,0.8845000267028809 C-0.3013373911380768,0.8845000267028809 -0.5460000038146973,0.6398374438285828 -0.5460000038146973,0.3385000228881836 C-0.5460000038146973,0.3385000228881836 -0.5460000038146973,-0.3385000228881836 -0.5460000038146973,-0.3385000228881836 C-0.5460000038146973,-0.6398374438285828 -0.3013373911380768,-0.8845000267028809 0,-0.8845000267028809 C0,-0.8845000267028809 0,-0.8845000267028809 0,-0.8845000267028809 C0.3013373911380768,-0.8845000267028809 0.5460000038146973,-0.6398374438285828 0.5460000038146973,-0.3385000228881836z"></path></g><g opacity="1" transform="matrix(1,0,0,1,59.42900085449219,30.142000198364258)"><path fill="rgb(74,74,74)" fill-opacity="1" d=" M14.045999526977539,-1.3385000228881836 C14.045999526977539,-1.3385000228881836 14.045999526977539,-0.6614999771118164 14.045999526977539,-0.6614999771118164 C14.045999526977539,-0.3601625859737396 13.801337242126465,-0.11549997329711914 13.5,-0.11549997329711914 C13.5,-0.11549997329711914 13.5,-0.11549997329711914 13.5,-0.11549997329711914 C13.198662757873535,-0.11549997329711914 12.954000473022461,-0.3601625859737396 12.954000473022461,-0.6614999771118164 C12.954000473022461,-0.6614999771118164 12.954000473022461,-1.3385000228881836 12.954000473022461,-1.3385000228881836 C12.954000473022461,-1.639837384223938 13.198662757873535,-1.8845000267028809 13.5,-1.8845000267028809 C13.5,-1.8845000267028809 13.5,-1.8845000267028809 13.5,-1.8845000267028809 C13.801337242126465,-1.8845000267028809 14.045999526977539,-1.639837384223938 14.045999526977539,-1.3385000228881836z"></path></g></g></g><g mask="url(#__lottie_element_372_1)" style="display: none;"><g transform="matrix(-1.8427430391311646,-3.55025315284729,3.55025315284729,-1.8427430391311646,1223.85205078125,1792.7864990234375)" opacity="1"><g opacity="1" transform="matrix(1,0,0,1,0,0)"><g opacity="1" transform="matrix(1,0,0,1,53.57699966430664,51.499000549316406)"><path fill="rgb(255,255,255)" fill-opacity="1" d=" M-4.098999977111816,-2.3299999237060547 C-4.098999977111816,-2.3299999237060547 -6.839000225067139,-0.3659999966621399 -5.913000106811523,3.6540000438690186 C-4.651000022888184,9.13599967956543 5.751999855041504,8.78600025177002 6.311999797821045,-0.4449999928474426 C6.839000225067139,-9.13599967956543 -5.400000095367432,-9.098999977111816 -5.400000095367432,-9.098999977111816"></path></g><g opacity="1" transform="matrix(1,0,0,1,53.62900161743164,53.47100067138672)"><path fill="rgb(235,235,235)" fill-opacity="1" d=" M-4.7170000076293945,-6.192999839782715 C-4.7170000076293945,-6.192999839782715 -4.703999996185303,-6.195000171661377 -4.681000232696533,-6.197999954223633 C-1.8509999513626099,-6.585999965667725 0.1940000057220459,-3.6730000972747803 -0.9449999928474426,-1.0549999475479126 C-2.311000108718872,2.0850000381469727 -0.7390000224113464,4.099999904632568 3.180999994277954,4.005000114440918 C1.652999997138977,5.059999942779541 -1.7599999904632568,6.01800012588501 -3.4600000381469727,4.835999965667725 C-5.159999847412109,3.6540000438690186 -6.51800012588501,-0.8679999709129333 -6.51800012588501,-0.8679999709129333 C-6.51800012588501,-0.8679999709129333 -4.7170000076293945,-6.192999839782715 -4.7170000076293945,-6.192999839782715z"></path></g><g opacity="1" transform="matrix(1,0,0,1,53.57699966430664,51.499000549316406)"><path stroke-linecap="round" stroke-linejoin="round" fill-opacity="0" stroke="rgb(73,73,73)" stroke-opacity="1" stroke-width="2" d=" M-4.098999977111816,-2.3299999237060547 C-4.098999977111816,-2.3299999237060547 -6.839000225067139,-0.3659999966621399 -5.913000106811523,3.6540000438690186 C-4.651000022888184,9.13599967956543 5.751999855041504,8.78600025177002 6.311999797821045,-0.4449999928474426 C6.839000225067139,-9.13599967956543 -5.400000095367432,-9.098999977111816 -5.400000095367432,-9.098999977111816"></path></g></g></g></g><g style="display: none;" transform="matrix(-2.635463237762451,-3.0090420246124268,3.0090420246124268,-2.635463237762451,1276.4453125,1792.1259765625)" opacity="1"><g opacity="1" transform="matrix(1,0,0,1,0,0)"><g opacity="1" transform="matrix(1,0,0,1,53.57699966430664,51.499000549316406)"><path fill="rgb(255,255,255)" fill-opacity="1" d=" M-4.098999977111816,-2.3299999237060547 C-4.098999977111816,-2.3299999237060547 -6.839000225067139,-0.3659999966621399 -5.913000106811523,3.6540000438690186 C-4.651000022888184,9.13599967956543 5.751999855041504,8.78600025177002 6.311999797821045,-0.4449999928474426 C5.991000175476074,-4.764999866485596 1.253999948501587,-7.228000164031982 1.253999948501587,-7.228000164031982"></path><path stroke-linecap="round" stroke-linejoin="round" fill-opacity="0" stroke="rgb(73,73,73)" stroke-opacity="1" stroke-width="2" d=" M-4.098999977111816,-2.3299999237060547 C-4.098999977111816,-2.3299999237060547 -6.839000225067139,-0.3659999966621399 -5.913000106811523,3.6540000438690186 C-4.651000022888184,9.13599967956543 5.751999855041504,8.78600025177002 6.311999797821045,-0.4449999928474426 C5.991000175476074,-4.764999866485596 1.253999948501587,-7.228000164031982 1.253999948501587,-7.228000164031982"></path></g></g><g opacity="1" transform="matrix(1,0,0,1,53.62900161743164,53.47100067138672)"><path fill="rgb(74,74,74)" fill-opacity="0.07" d=" M-4.7170000076293945,-6.192999839782715 C-4.7170000076293945,-6.192999839782715 -4.703999996185303,-6.195000171661377 -4.681000232696533,-6.197999954223633 C-1.8509999513626099,-6.585999965667725 0.1940000057220459,-3.6730000972747803 -0.9449999928474426,-1.0549999475479126 C-2.311000108718872,2.0850000381469727 -0.7390000224113464,4.099999904632568 3.180999994277954,4.005000114440918 C1.652999997138977,5.059999942779541 -1.7599999904632568,6.01800012588501 -3.4600000381469727,4.835999965667725 C-5.159999847412109,3.6540000438690186 -6.51800012588501,-0.8679999709129333 -6.51800012588501,-0.8679999709129333 C-6.51800012588501,-0.8679999709129333 -4.7170000076293945,-6.192999839782715 -4.7170000076293945,-6.192999839782715z"></path></g></g><g style="display: block;" transform="matrix(4,0,0,4,1072.0009765625,1324.001953125)" opacity="1"><g opacity="1" transform="matrix(1,0,0,1,36.28799819946289,10.005999565124512)"><path fill="rgb(255,255,255)" fill-opacity="0.5" d=" M35.28799819946289,-9.005999565124512 C35.28799819946289,-9.005999565124512 -13.619999885559082,-9.005999565124512 -13.619999885559082,-9.005999565124512 C-13.619999885559082,-9.005999565124512 -13.788000106811523,40.50600051879883 -13.788000106811523,40.50600051879883 C-13.788000106811523,40.50600051879883 35.119998931884766,40.50600051879883 35.119998931884766,40.50600051879883 C35.119998931884766,40.50600051879883 35.28799819946289,-9.005999565124512 35.28799819946289,-9.005999565124512z"></path><path stroke-linecap="round" stroke-linejoin="round" fill-opacity="0" stroke="rgb(74,73,74)" stroke-opacity="1" stroke-width="2" d=" M35.28799819946289,-9.005999565124512 C35.28799819946289,-9.005999565124512 -13.619999885559082,-9.005999565124512 -13.619999885559082,-9.005999565124512 C-13.619999885559082,-9.005999565124512 -13.788000106811523,40.50600051879883 -13.788000106811523,40.50600051879883 C-13.788000106811523,40.50600051879883 35.119998931884766,40.50600051879883 35.119998931884766,40.50600051879883 C35.119998931884766,40.50600051879883 35.28799819946289,-9.005999565124512 35.28799819946289,-9.005999565124512z"></path></g></g></g></svg>