<svg xmlns="http://www.w3.org/2000/svg" xmlns:xlink="http://www.w3.org/1999/xlink" viewBox="0 0 100 100" width="100" height="100" preserveAspectRatio="xMidYMid meet" style="width: 100%; height: 100%; transform: translate3d(0px, 0px, 0px); content-visibility: visible;"><defs><clipPath id="__lottie_element_2"><rect width="100" height="100" x="0" y="0"></rect></clipPath><clipPath id="__lottie_element_4"><path d="M0,0 L750,0 L750,2478 L0,2478z"></path></clipPath><clipPath id="__lottie_element_8"><path d="M0,0 L239,0 L239,243 L0,243z"></path></clipPath></defs><g clip-path="url(#__lottie_element_2)"><g clip-path="url(#__lottie_element_4)" transform="matrix(1,0,0,1,-198,-1362.5)" opacity="1" style="display: block;"><g transform="matrix(0,0,0,0,283.14300537109375,1373.0789794921875)" opacity="1" style="display: block;"><g opacity="1" transform="matrix(1,0,0,1,-52.5,-361.5)"><path fill="rgb(255,0,131)" fill-opacity="1" d=" M-16.529632568359375,-132.60589599609375 C-7.406928062438965,-155.11077880859375 7.406928062438965,-155.11077880859375 16.529632568359375,-132.60589599609375 C16.529632568359375,-132.60589599609375 33.481201171875,-90.78792572021484 33.481201171875,-90.78792572021484 C42.603904724121094,-68.28305053710938 68.28305053710938,-42.603904724121094 90.78792572021484,-33.481201171875 C90.78792572021484,-33.481201171875 132.60589599609375,-16.529632568359375 132.60589599609375,-16.529632568359375 C155.11077880859375,-7.406928062438965 155.11077880859375,7.406928062438965 132.60589599609375,16.529632568359375 C132.60589599609375,16.529632568359375 90.78792572021484,33.481201171875 90.78792572021484,33.481201171875 C68.28305053710938,42.603904724121094 42.603904724121094,68.28305053710938 33.481201171875,90.78792572021484 C33.481201171875,90.78792572021484 16.529632568359375,132.60589599609375 16.529632568359375,132.60589599609375 C7.406928062438965,155.11077880859375 -7.406928062438965,155.11077880859375 -16.529632568359375,132.60589599609375 C-16.529632568359375,132.60589599609375 -33.481201171875,90.78792572021484 -33.481201171875,90.78792572021484 C-42.603904724121094,68.28305053710938 -68.28305053710938,42.603904724121094 -90.78792572021484,33.481201171875 C-90.78792572021484,33.481201171875 -132.60589599609375,16.529632568359375 -132.60589599609375,16.529632568359375 C-155.11077880859375,7.406928062438965 -155.11077880859375,-7.406928062438965 -132.60589599609375,-16.529632568359375 C-132.60589599609375,-16.529632568359375 -90.78792572021484,-33.481201171875 -90.78792572021484,-33.481201171875 C-68.28305053710938,-42.603904724121094 -42.603904724121094,-68.28305053710938 -33.481201171875,-90.78792572021484 C-33.481201171875,-90.78792572021484 -16.529632568359375,-132.60589599609375 -16.529632568359375,-132.60589599609375z"></path></g></g><g style="display: block;" transform="matrix(0,0,0,0,209.64300537109375,1375.5789794921875)" opacity="1"><g opacity="1" transform="matrix(1,0,0,1,-52.5,-361.5)"><path fill="rgb(255,79,169)" fill-opacity="1" d=" M-16.529632568359375,-132.60589599609375 C-7.406928062438965,-155.11077880859375 7.406928062438965,-155.11077880859375 16.529632568359375,-132.60589599609375 C16.529632568359375,-132.60589599609375 33.481201171875,-90.78792572021484 33.481201171875,-90.78792572021484 C42.603904724121094,-68.28305053710938 68.28305053710938,-42.603904724121094 90.78792572021484,-33.481201171875 C90.78792572021484,-33.481201171875 132.60589599609375,-16.529632568359375 132.60589599609375,-16.529632568359375 C155.11077880859375,-7.406928062438965 155.11077880859375,7.406928062438965 132.60589599609375,16.529632568359375 C132.60589599609375,16.529632568359375 90.78792572021484,33.481201171875 90.78792572021484,33.481201171875 C68.28305053710938,42.603904724121094 42.603904724121094,68.28305053710938 33.481201171875,90.78792572021484 C33.481201171875,90.78792572021484 16.529632568359375,132.60589599609375 16.529632568359375,132.60589599609375 C7.406928062438965,155.11077880859375 -7.406928062438965,155.11077880859375 -16.529632568359375,132.60589599609375 C-16.529632568359375,132.60589599609375 -33.481201171875,90.78792572021484 -33.481201171875,90.78792572021484 C-42.603904724121094,68.28305053710938 -68.28305053710938,42.603904724121094 -90.78792572021484,33.481201171875 C-90.78792572021484,33.481201171875 -132.60589599609375,16.529632568359375 -132.60589599609375,16.529632568359375 C-155.11077880859375,7.406928062438965 -155.11077880859375,-7.406928062438965 -132.60589599609375,-16.529632568359375 C-132.60589599609375,-16.529632568359375 -90.78792572021484,-33.481201171875 -90.78792572021484,-33.481201171875 C-68.28305053710938,-42.603904724121094 -42.603904724121094,-68.28305053710938 -33.481201171875,-90.78792572021484 C-33.481201171875,-90.78792572021484 -16.529632568359375,-132.60589599609375 -16.529632568359375,-132.60589599609375z"></path></g></g><g style="display: block;" transform="matrix(0,0,0,0,276.39300537109375,1425.8289794921875)" opacity="1"><g opacity="1" transform="matrix(1,0,0,1,-52.5,-361.5)"><path fill="rgb(255,79,169)" fill-opacity="1" d=" M-16.529632568359375,-132.60589599609375 C-7.406928062438965,-155.11077880859375 7.406928062438965,-155.11077880859375 16.529632568359375,-132.60589599609375 C16.529632568359375,-132.60589599609375 33.481201171875,-90.78792572021484 33.481201171875,-90.78792572021484 C42.603904724121094,-68.28305053710938 68.28305053710938,-42.603904724121094 90.78792572021484,-33.481201171875 C90.78792572021484,-33.481201171875 132.60589599609375,-16.529632568359375 132.60589599609375,-16.529632568359375 C155.11077880859375,-7.406928062438965 155.11077880859375,7.406928062438965 132.60589599609375,16.529632568359375 C132.60589599609375,16.529632568359375 90.78792572021484,33.481201171875 90.78792572021484,33.481201171875 C68.28305053710938,42.603904724121094 42.603904724121094,68.28305053710938 33.481201171875,90.78792572021484 C33.481201171875,90.78792572021484 16.529632568359375,132.60589599609375 16.529632568359375,132.60589599609375 C7.406928062438965,155.11077880859375 -7.406928062438965,155.11077880859375 -16.529632568359375,132.60589599609375 C-16.529632568359375,132.60589599609375 -33.481201171875,90.78792572021484 -33.481201171875,90.78792572021484 C-42.603904724121094,68.28305053710938 -68.28305053710938,42.603904724121094 -90.78792572021484,33.481201171875 C-90.78792572021484,33.481201171875 -132.60589599609375,16.529632568359375 -132.60589599609375,16.529632568359375 C-155.11077880859375,7.406928062438965 -155.11077880859375,-7.406928062438965 -132.60589599609375,-16.529632568359375 C-132.60589599609375,-16.529632568359375 -90.78792572021484,-33.481201171875 -90.78792572021484,-33.481201171875 C-68.28305053710938,-42.603904724121094 -42.603904724121094,-68.28305053710938 -33.481201171875,-90.78792572021484 C-33.481201171875,-90.78792572021484 -16.529632568359375,-132.60589599609375 -16.529632568359375,-132.60589599609375z"></path></g></g><g style="display: block;" transform="matrix(0,0,0,0,235.5,1372.5)" opacity="1"><g opacity="1" transform="matrix(1,0,0,1,-215.41600036621094,125.58399963378906)"><path fill="rgb(255,79,169)" fill-opacity="1" d=" M0,-4.584000110626221 C2.529909610748291,-4.584000110626221 4.584000110626221,-2.529909610748291 4.584000110626221,0 C4.584000110626221,2.529909610748291 2.529909610748291,4.584000110626221 0,4.584000110626221 C-2.529909610748291,4.584000110626221 -4.584000110626221,2.529909610748291 -4.584000110626221,0 C-4.584000110626221,-2.529909610748291 -2.529909610748291,-4.584000110626221 0,-4.584000110626221z"></path></g></g><g style="display: block;" transform="matrix(0,0,0,0,212.25,1435)" opacity="1"><g opacity="1" transform="matrix(1,0,0,1,-215.41600036621094,125.58399963378906)"><path fill="rgb(255,0,131)" fill-opacity="1" d=" M0,-4.584000110626221 C2.529909610748291,-4.584000110626221 4.584000110626221,-2.529909610748291 4.584000110626221,0 C4.584000110626221,2.529909610748291 2.529909610748291,4.584000110626221 0,4.584000110626221 C-2.529909610748291,4.584000110626221 -4.584000110626221,2.529909610748291 -4.584000110626221,0 C-4.584000110626221,-2.529909610748291 -2.529909610748291,-4.584000110626221 0,-4.584000110626221z"></path></g></g><g clip-path="url(#__lottie_element_8)" transform="matrix(1,0,0,1,87,1296.3665771484375)" opacity="1" style="display: block;"><g transform="matrix(1,0,0,1,131.82699584960938,98.70999908447266)" opacity="0.7000000000000001" style="display: block;"><g opacity="1" transform="matrix(1,0,0,1,28.17300033569336,23.10099983215332)"><path fill="rgb(255,0,131)" fill-opacity="1" d=" M27.812999725341797,-8.718999862670898 C27.812999725341797,-8.718999862670898 21.150999069213867,-21.305999755859375 21.150999069213867,-21.305999755859375 C21.150999069213867,-22.159000396728516 11.680999755859375,-22.850000381469727 0,-22.850000381469727 C-11.680999755859375,-22.850000381469727 -21.150999069213867,-22.159000396728516 -21.150999069213867,-21.305999755859375 C-21.150999069213867,-21.305999755859375 -27.812999725341797,-8.718999862670898 -27.812999725341797,-8.718999862670898 C-27.92300033569336,-8.51099967956543 -27.906999588012695,-8.258999824523926 -27.770999908447266,-8.065999984741211 C-27.770999908447266,-8.065999984741211 -2.7139999866485596,21.22100067138672 -2.7139999866485596,21.22100067138672 C-1.2710000276565552,22.850000381469727 1.2710000276565552,22.850000381469727 2.7139999866485596,21.22100067138672 C2.7139999866485596,21.22100067138672 27.770999908447266,-8.065999984741211 27.770999908447266,-8.065999984741211 C27.906999588012695,-8.258999824523926 27.92300033569336,-8.51099967956543 27.812999725341797,-8.718999862670898z"></path></g></g><g transform="matrix(1,0,0,1,126.989990234375,93.89800262451172)" opacity="1" style="display: block;"><g opacity="1" transform="matrix(1,0,0,1,32.92300033569336,28.62299919128418)"><path stroke-linecap="butt" stroke-linejoin="miter" fill-opacity="0" stroke-miterlimit="10" stroke="rgb(198,2,93)" stroke-opacity="1" stroke-width="2" d=" M21.150999069213867,-22.077999114990234 C21.150999069213867,-22.077999114990234 27.812999725341797,-9.491000175476074 27.812999725341797,-9.491000175476074 C27.92300033569336,-9.282999992370605 27.906999588012695,-9.031000137329102 27.770999908447266,-8.838000297546387 C27.770999908447266,-8.838000297546387 2.7139999866485596,20.448999404907227 2.7139999866485596,20.448999404907227 C1.2719999551773071,22.077999114990234 -1.2710000276565552,22.077999114990234 -2.7139999866485596,20.448999404907227 C-2.7139999866485596,20.448999404907227 -27.770999908447266,-8.838000297546387 -27.770999908447266,-8.838000297546387 C-27.906999588012695,-9.031000137329102 -27.92300033569336,-9.282999992370605 -27.812999725341797,-9.491000175476074 C-27.812999725341797,-9.491000175476074 -21.150999069213867,-22.077999114990234 -21.150999069213867,-22.077999114990234"></path></g><g opacity="1" transform="matrix(1,0,0,1,32.92300033569336,6.545000076293945)"><path stroke-linecap="butt" stroke-linejoin="miter" fill-opacity="0" stroke-miterlimit="10" stroke="rgb(198,2,93)" stroke-opacity="1" stroke-width="2" d=" M21.150999069213867,0 C21.150999069213867,0.8539999723434448 11.680999755859375,1.5449999570846558 0,1.5449999570846558 C-11.680999755859375,1.5449999570846558 -21.150999069213867,0.8539999723434448 -21.150999069213867,0 C-21.150999069213867,-0.8539999723434448 -11.680999755859375,-1.5449999570846558 0,-1.5449999570846558 C11.680999755859375,-1.5449999570846558 21.150999069213867,-0.8539999723434448 21.150999069213867,0z"></path></g></g><g transform="matrix(1,0,0,1,146.09100341796875,100.84199523925781)" opacity="1" style="display: block;"><g opacity="1" transform="matrix(1,0,0,1,2.494999885559082,7.9670000076293945)"><path stroke-linecap="butt" stroke-linejoin="miter" fill-opacity="0" stroke-miterlimit="10" stroke="rgb(198,2,93)" stroke-opacity="1" stroke-width="2" d=" M20.101484298706055,-6.9670000076293945 C20.101484298706055,-6.9670000076293945 22.879209518432617,6.96603536605835 22.879209518432617,6.96603536605835"></path></g></g><g transform="matrix(1,0,0,1,146.0659942626953,114.88800048828125)" opacity="1" style="display: block;"><g opacity="1" transform="matrix(1,0,0,1,7.267000198364258,15.133999824523926)"><path stroke-linecap="butt" stroke-linejoin="miter" fill-opacity="0" stroke-miterlimit="10" stroke="rgb(198,2,93)" stroke-opacity="1" stroke-width="2" d=" M6.777228355407715,14.144609451293945 C6.777228355407715,14.144609451293945 18.42264175415039,-14.12242603302002 18.42264175415039,-14.12242603302002"></path></g></g><g transform="matrix(1,0,0,1,159.25999450683594,114.88800048828125)" opacity="1" style="display: block;"><g opacity="1" transform="matrix(1,0,0,1,7.26800012588501,15.133999824523926)"><path stroke-linecap="butt" stroke-linejoin="miter" fill-opacity="0" stroke-miterlimit="10" stroke="rgb(198,2,93)" stroke-opacity="1" stroke-width="2" d=" M-5.302485466003418,14.25456428527832 C-5.302485466003418,14.25456428527832 20.01133155822754,-15.821900367736816 20.01133155822754,-15.821900367736816"></path></g></g><g transform="matrix(1,0,0,1,126.92098999023438,108.3689956665039)" opacity="1" style="display: block;"><g opacity="1" transform="matrix(1,0,0,1,32.992000579833984,6.260000228881836)"><path stroke-linecap="butt" stroke-linejoin="miter" fill-opacity="0" stroke-miterlimit="10" stroke="rgb(198,2,93)" stroke-opacity="1" stroke-width="2" d=" M-27.992000579833984,-1.2599999904632568 C-27.992000579833984,-1.2599999904632568 -12.847000122070312,1.2599999904632568 -12.847000122070312,1.2599999904632568 C-12.847000122070312,1.2599999904632568 12.873000144958496,1.2599999904632568 12.873000144958496,1.2599999904632568 C12.873000144958496,1.2599999904632568 27.992000579833984,-1.2599999904632568 27.992000579833984,-1.2599999904632568"></path></g></g><g transform="matrix(1,0,0,1,168.7790069580078,100.84199523925781)" opacity="1" style="display: block;"><g opacity="1" transform="matrix(1,0,0,1,2.494999885559082,7.9670000076293945)"><path stroke-linecap="butt" stroke-linejoin="miter" fill-opacity="0" stroke-miterlimit="10" stroke="rgb(198,2,93)" stroke-opacity="1" stroke-width="2" d=" M9.114659309387207,-8.654900550842285 C9.114659309387207,-8.654900550842285 15.480460166931152,4.796842575073242 15.480460166931152,4.796842575073242"></path></g></g><g transform="matrix(1,0,0,1,135.84100341796875,100.84199523925781)" opacity="1" style="display: block;"><g opacity="1" transform="matrix(1,0,0,1,2.494999885559082,7.9670000076293945)"><path stroke-linecap="butt" stroke-linejoin="miter" fill-opacity="0" stroke-miterlimit="10" stroke="rgb(198,2,93)" stroke-opacity="1" stroke-width="2" d=" M11.342352867126465,-6.846435546875 C11.342352867126465,-6.846435546875 8.231724739074707,6.996786117553711 8.231724739074707,6.996786117553711"></path></g></g><g transform="matrix(1,0,0,1,135.8159942626953,114.88800048828125)" opacity="1" style="display: block;"><g opacity="1" transform="matrix(1,0,0,1,7.267000198364258,15.133999824523926)"><path stroke-linecap="butt" stroke-linejoin="miter" fill-opacity="0" stroke-miterlimit="10" stroke="rgb(198,2,93)" stroke-opacity="1" stroke-width="2" d=" M16.240385055541992,14.115679740905762 C16.240385055541992,14.115679740905762 3.2362029552459717,-14.206648826599121 3.2362029552459717,-14.206648826599121"></path></g></g></g></g></g></svg>