<svg width="1346" height="284" viewBox="0 0 1346 284" fill="none" xmlns="http://www.w3.org/2000/svg">
<path d="M158 189.9C160.6 189.9 162.6 191.2 164 193.8C165.4 196.4 166.1 199.7 166.1 203.7C166.1 208.7 165.4 212.6 164 215.4C162.6 218 160.4 219.8 157.4 220.8C145.4 225 132.2 227.4 117.8 228C113.8 244.6 106.2 258 95 268.2C84 278.4 71.8 283.5 58.4 283.5C38.2 283.5 23.5 275.8 14.3 260.4C5.1 245 0.500001 222.7 0.500001 193.5C0.500001 167.7 3.7 139.7 10.1 109.5C16.5 79.1 25.8 53.3 38 32.1C50.4 10.7 65.1 -1.71661e-05 82.1 -1.71661e-05C91.3 -1.71661e-05 98.7 3.99998 104.3 12C109.9 19.8 112.7 30 112.7 42.6C112.7 59 109.6 75.3 103.4 91.5C97.2 107.7 86.9 124.7 72.5 142.5C85.9 143.5 96.8 149.1 105.2 159.3C113.6 169.3 118.6 181.7 120.2 196.5C129.6 195.9 140.8 193.9 153.8 190.5C155 190.1 156.4 189.9 158 189.9ZM75.2 29.7C71.2 29.7 66.8 35.7 62 47.7C57.4 59.5 53.1 75.6 49.1 96C45.1 116.4 42.1 138.7 40.1 162.9C53.3 138.7 63.8 117.4 71.6 99C79.6 80.4 83.6 63.9 83.6 49.5C83.6 43.1 82.8 38.2 81.2 34.8C79.8 31.4 77.8 29.7 75.2 29.7ZM59.6 251.7C65.8 251.7 71.3 249.1 76.1 243.9C80.9 238.7 84.1 231.2 85.7 221.4C79.5 217.2 74.7 211.7 71.3 204.9C68.1 198.1 66.5 190.9 66.5 183.3C66.5 180.5 66.9 176.7 67.7 171.9H66.8C58.6 171.9 51.7 176 46.1 184.2C40.7 192.2 38 203 38 216.6C38 228 40.1 236.7 44.3 242.7C48.7 248.7 53.8 251.7 59.6 251.7ZM179.497 122.4C171.097 122.4 164.797 120.5 160.597 116.7C156.397 112.7 154.297 107.2 154.297 100.2C154.297 93.2 156.997 87.4 162.397 82.8C167.997 78 174.897 75.6 183.097 75.6C190.497 75.6 196.497 77.4 201.097 81C205.697 84.6 207.997 89.7 207.997 96.3C207.997 104.3 205.397 110.7 200.197 115.5C194.997 120.1 188.097 122.4 179.497 122.4ZM177.097 283.5C164.097 283.5 154.597 278.9 148.597 269.7C142.797 260.5 139.897 248.3 139.897 233.1C139.897 224.1 140.997 212.6 143.197 198.6C145.597 184.4 148.597 171.2 152.197 159C153.997 152.6 156.397 148.2 159.397 145.8C162.397 143.4 167.197 142.2 173.797 142.2C183.997 142.2 189.097 145.6 189.097 152.4C189.097 157.4 187.197 169 183.397 187.2C178.597 209.2 176.197 224.1 176.197 231.9C176.197 237.9 176.997 242.5 178.597 245.7C180.197 248.9 182.897 250.5 186.697 250.5C190.297 250.5 194.797 248 200.197 243C205.597 238 212.797 230.1 221.797 219.3C224.197 216.5 226.897 215.1 229.897 215.1C232.497 215.1 234.497 216.3 235.897 218.7C237.497 221.1 238.297 224.4 238.297 228.6C238.297 236.6 236.397 242.8 232.597 247.2C212.797 271.4 194.297 283.5 177.097 283.5ZM347.825 215.1C350.425 215.1 352.425 216.3 353.825 218.7C355.425 221.1 356.225 224.4 356.225 228.6C356.225 236.6 354.325 242.8 350.525 247.2C341.925 257.8 332.525 266.5 322.325 273.3C312.125 280.1 300.425 283.5 287.225 283.5C246.425 283.5 226.025 254.8 226.025 197.4C226.025 188.6 226.325 179.7 226.925 170.7H215.225C209.225 170.7 205.125 169.6 202.925 167.4C200.925 165.2 199.925 161.7 199.925 156.9C199.925 145.7 204.425 140.1 213.425 140.1H230.525C233.925 118.1 239.125 98 246.125 79.8C253.125 61.6 261.525 47.1 271.325 36.3C281.325 25.5 292.025 20.1 303.425 20.1C311.825 20.1 318.425 23.8 323.225 31.2C328.025 38.6 330.425 47.9 330.425 59.1C330.425 90.1 317.425 117.1 291.425 140.1H325.025C328.225 140.1 330.525 140.8 331.925 142.2C333.325 143.6 334.025 146.2 334.025 150C334.025 163.8 322.725 170.7 300.125 170.7H263.525C263.125 180.7 262.925 188.5 262.925 194.1C262.925 214.9 265.325 229.5 270.125 237.9C275.125 246.3 282.925 250.5 293.525 250.5C302.125 250.5 309.725 247.9 316.325 242.7C322.925 237.5 330.725 229.7 339.725 219.3C342.125 216.5 344.825 215.1 347.825 215.1ZM295.325 48.9C292.325 48.9 288.925 52.7 285.125 60.3C281.525 67.7 278.025 78.1 274.625 91.5C271.425 104.7 268.725 119.4 266.525 135.6C278.325 125.4 287.125 114 292.925 101.4C298.925 88.6 301.925 77 301.925 66.6C301.925 54.8 299.725 48.9 295.325 48.9ZM353.098 283.5C345.498 283.5 340.098 279.5 336.898 271.5C333.898 263.5 332.398 250.7 332.398 233.1C332.398 207.1 336.098 182.4 343.498 159C345.298 153.2 348.198 149 352.198 146.4C356.398 143.6 362.198 142.2 369.598 142.2C373.598 142.2 376.398 142.7 377.998 143.7C379.598 144.7 380.398 146.6 380.398 149.4C380.398 152.6 378.898 159.8 375.898 171C373.898 179 372.298 186 371.098 192C369.898 198 368.898 205.4 368.098 214.2C374.698 197 382.098 183 390.298 172.2C398.498 161.4 406.498 153.7 414.298 149.1C422.298 144.5 429.598 142.2 436.198 142.2C449.198 142.2 455.698 148.7 455.698 161.7C455.698 169.5 453.498 183.6 449.098 204C445.298 221.4 443.398 232.9 443.398 238.5C443.398 246.5 446.298 250.5 452.098 250.5C456.098 250.5 460.798 248.1 466.198 243.3C471.798 238.3 479.198 230.3 488.398 219.3C490.798 216.5 493.498 215.1 496.498 215.1C499.098 215.1 501.098 216.3 502.498 218.7C504.098 221.1 504.898 224.4 504.898 228.6C504.898 236.6 502.998 242.8 499.198 247.2C490.598 257.8 481.298 266.5 471.298 273.3C461.498 280.1 450.298 283.5 437.698 283.5C427.498 283.5 419.798 280.6 414.598 274.8C409.398 268.8 406.798 260.2 406.798 249C406.798 243.4 408.198 233.4 410.998 219C413.598 206.4 414.898 197.7 414.898 192.9C414.898 189.7 413.798 188.1 411.598 188.1C408.998 188.1 405.298 191.5 400.498 198.3C395.898 204.9 391.098 213.7 386.098 224.7C381.298 235.7 377.398 247.3 374.398 259.5C372.198 268.9 369.598 275.3 366.598 278.7C363.798 281.9 359.298 283.5 353.098 283.5ZM633.627 189.9C636.227 189.9 638.227 191.2 639.627 193.8C641.027 196.4 641.727 199.7 641.727 203.7C641.727 213.3 638.827 219 633.027 220.8C621.027 225 607.827 227.4 593.427 228C589.627 244.8 582.127 258.3 570.927 268.5C559.727 278.5 547.027 283.5 532.827 283.5C520.827 283.5 510.527 280.6 501.927 274.8C493.527 269 487.127 261.3 482.727 251.7C478.327 242.1 476.127 231.7 476.127 220.5C476.127 205.3 479.027 191.8 484.827 180C490.627 168 498.627 158.7 508.827 152.1C519.027 145.3 530.327 141.9 542.727 141.9C557.927 141.9 570.127 147.2 579.327 157.8C588.727 168.2 594.227 181.1 595.827 196.5C605.227 195.9 616.427 193.9 629.427 190.5C631.027 190.1 632.427 189.9 633.627 189.9ZM535.227 251.7C541.627 251.7 547.127 249.1 551.727 243.9C556.527 238.7 559.727 231.2 561.327 221.4C555.127 217.2 550.327 211.7 546.927 204.9C543.727 198.1 542.127 190.9 542.127 183.3C542.127 180.1 542.427 176.9 543.027 173.7H541.527C533.527 173.7 526.827 177.6 521.427 185.4C516.227 193 513.627 203.8 513.627 217.8C513.627 228.8 515.727 237.2 519.927 243C524.327 248.8 529.427 251.7 535.227 251.7ZM767.408 190.8C768.008 190.6 769.008 190.5 770.408 190.5C773.408 190.5 775.708 191.5 777.308 193.5C778.908 195.5 779.708 198.2 779.708 201.6C779.708 207.8 778.508 212.7 776.108 216.3C773.708 219.7 770.108 222.2 765.308 223.8C756.108 226.8 746.308 228.3 735.908 228.3C727.108 228.3 718.808 227.1 711.008 224.7C705.208 234.1 698.808 243.8 691.808 253.8C683.808 265.2 676.908 273 671.108 277.2C665.308 281.4 658.708 283.5 651.308 283.5C643.108 283.5 636.608 280.3 631.808 273.9C627.208 267.5 624.308 257.4 623.108 243.6C620.708 215.6 619.508 191.1 619.508 170.1V159.6C619.708 153 621.508 148.4 624.908 145.8C628.308 143.2 633.408 141.9 640.208 141.9C645.408 141.9 649.208 143.1 651.608 145.5C654.208 147.7 655.508 151.5 655.508 156.9C655.508 179.9 656.908 209.8 659.708 246.6C671.708 228.8 680.708 214.6 686.708 204C683.708 198.2 682.208 191.3 682.208 183.3C682.208 176.5 683.708 169.9 686.708 163.5C689.708 157.1 693.808 151.9 699.008 147.9C704.208 143.9 710.108 141.9 716.708 141.9C722.508 141.9 727.208 144 730.808 148.2C734.408 152.2 736.208 158.1 736.208 165.9C736.208 174.9 733.808 185.2 729.008 196.8C736.608 196.4 746.708 194.9 759.308 192.3L767.408 190.8ZM790.573 283.5C778.173 283.5 768.273 279 760.873 270C753.473 261 749.773 249.2 749.773 234.6C749.773 218.6 753.473 203.5 760.873 189.3C768.273 174.9 778.073 163.4 790.273 154.8C802.673 146 815.773 141.6 829.573 141.6C833.973 141.6 836.873 142.5 838.273 144.3C839.873 145.9 841.173 148.9 842.173 153.3C846.373 152.5 850.773 152.1 855.373 152.1C865.173 152.1 870.073 155.6 870.073 162.6C870.073 166.8 868.573 176.8 865.573 192.6C860.973 215.6 858.673 231.6 858.673 240.6C858.673 243.6 859.373 246 860.773 247.8C862.373 249.6 864.373 250.5 866.773 250.5C870.573 250.5 875.173 248.1 880.573 243.3C885.973 238.3 893.273 230.3 902.473 219.3C904.873 216.5 907.573 215.1 910.573 215.1C913.173 215.1 915.173 216.3 916.573 218.7C918.173 221.1 918.973 224.4 918.973 228.6C918.973 236.6 917.073 242.8 913.273 247.2C905.073 257.4 896.373 266 887.173 273C877.973 280 869.073 283.5 860.473 283.5C853.873 283.5 847.773 281.3 842.173 276.9C836.773 272.3 832.673 266.1 829.873 258.3C819.473 275.1 806.373 283.5 790.573 283.5ZM801.373 253.2C805.773 253.2 809.973 250.6 813.973 245.4C817.973 240.2 820.873 233.3 822.673 224.7L833.773 169.5C825.373 169.7 817.573 172.9 810.373 179.1C803.373 185.1 797.773 193.1 793.573 203.1C789.373 213.1 787.273 223.7 787.273 234.9C787.273 241.1 788.473 245.7 790.873 248.7C793.473 251.7 796.973 253.2 801.373 253.2ZM1028.39 215.1C1030.99 215.1 1032.99 216.3 1034.39 218.7C1035.99 221.1 1036.79 224.4 1036.79 228.6C1036.79 236.6 1034.89 242.8 1031.09 247.2C1022.49 257.8 1013.09 266.5 1002.89 273.3C992.691 280.1 980.991 283.5 967.791 283.5C926.991 283.5 906.591 254.8 906.591 197.4C906.591 188.6 906.891 179.7 907.491 170.7H895.791C889.791 170.7 885.691 169.6 883.491 167.4C881.491 165.2 880.491 161.7 880.491 156.9C880.491 145.7 884.991 140.1 893.991 140.1H911.091C914.491 118.1 919.691 98 926.691 79.8C933.691 61.6 942.091 47.1 951.891 36.3C961.891 25.5 972.591 20.1 983.991 20.1C992.391 20.1 998.991 23.8 1003.79 31.2C1008.59 38.6 1010.99 47.9 1010.99 59.1C1010.99 90.1 997.991 117.1 971.991 140.1H1005.59C1008.79 140.1 1011.09 140.8 1012.49 142.2C1013.89 143.6 1014.59 146.2 1014.59 150C1014.59 163.8 1003.29 170.7 980.691 170.7H944.091C943.691 180.7 943.491 188.5 943.491 194.1C943.491 214.9 945.891 229.5 950.691 237.9C955.691 246.3 963.491 250.5 974.091 250.5C982.691 250.5 990.291 247.9 996.891 242.7C1003.49 237.5 1011.29 229.7 1020.29 219.3C1022.69 216.5 1025.39 215.1 1028.39 215.1ZM975.891 48.9C972.891 48.9 969.491 52.7 965.691 60.3C962.091 67.7 958.591 78.1 955.191 91.5C951.991 104.7 949.291 119.4 947.091 135.6C958.891 125.4 967.691 114 973.491 101.4C979.491 88.6 982.491 77 982.491 66.6C982.491 54.8 980.291 48.9 975.891 48.9ZM1051.66 122.4C1043.26 122.4 1036.96 120.5 1032.76 116.7C1028.56 112.7 1026.46 107.2 1026.46 100.2C1026.46 93.2 1029.16 87.4 1034.56 82.8C1040.16 78 1047.06 75.6 1055.26 75.6C1062.66 75.6 1068.66 77.4 1073.26 81C1077.86 84.6 1080.16 89.7 1080.16 96.3C1080.16 104.3 1077.56 110.7 1072.36 115.5C1067.16 120.1 1060.26 122.4 1051.66 122.4ZM1049.26 283.5C1036.26 283.5 1026.76 278.9 1020.76 269.7C1014.96 260.5 1012.06 248.3 1012.06 233.1C1012.06 224.1 1013.16 212.6 1015.36 198.6C1017.76 184.4 1020.76 171.2 1024.36 159C1026.16 152.6 1028.56 148.2 1031.56 145.8C1034.56 143.4 1039.36 142.2 1045.96 142.2C1056.16 142.2 1061.26 145.6 1061.26 152.4C1061.26 157.4 1059.36 169 1055.56 187.2C1050.76 209.2 1048.36 224.1 1048.36 231.9C1048.36 237.9 1049.16 242.5 1050.76 245.7C1052.36 248.9 1055.06 250.5 1058.86 250.5C1062.46 250.5 1066.96 248 1072.36 243C1077.76 238 1084.96 230.1 1093.96 219.3C1096.36 216.5 1099.06 215.1 1102.06 215.1C1104.66 215.1 1106.66 216.3 1108.06 218.7C1109.66 221.1 1110.46 224.4 1110.46 228.6C1110.46 236.6 1108.56 242.8 1104.76 247.2C1084.96 271.4 1066.46 283.5 1049.26 283.5ZM1239.19 189.9C1241.79 189.9 1243.79 191.2 1245.19 193.8C1246.59 196.4 1247.29 199.7 1247.29 203.7C1247.29 213.3 1244.39 219 1238.59 220.8C1226.59 225 1213.39 227.4 1198.99 228C1195.19 244.8 1187.69 258.3 1176.49 268.5C1165.29 278.5 1152.59 283.5 1138.39 283.5C1126.39 283.5 1116.09 280.6 1107.49 274.8C1099.09 269 1092.69 261.3 1088.29 251.7C1083.89 242.1 1081.69 231.7 1081.69 220.5C1081.69 205.3 1084.59 191.8 1090.39 180C1096.19 168 1104.19 158.7 1114.39 152.1C1124.59 145.3 1135.89 141.9 1148.29 141.9C1163.49 141.9 1175.69 147.2 1184.89 157.8C1194.29 168.2 1199.79 181.1 1201.39 196.5C1210.79 195.9 1221.99 193.9 1234.99 190.5C1236.59 190.1 1237.99 189.9 1239.19 189.9ZM1140.79 251.7C1147.19 251.7 1152.69 249.1 1157.29 243.9C1162.09 238.7 1165.29 231.2 1166.89 221.4C1160.69 217.2 1155.89 211.7 1152.49 204.9C1149.29 198.1 1147.69 190.9 1147.69 183.3C1147.69 180.1 1147.99 176.9 1148.59 173.7H1147.09C1139.09 173.7 1132.39 177.6 1126.99 185.4C1121.79 193 1119.19 203.8 1119.19 217.8C1119.19 228.8 1121.29 237.2 1125.49 243C1129.89 248.8 1134.99 251.7 1140.79 251.7ZM1242.84 283.5C1235.24 283.5 1229.84 279.5 1226.64 271.5C1223.64 263.5 1222.14 250.7 1222.14 233.1C1222.14 207.1 1225.84 182.4 1233.24 159C1235.04 153.2 1237.94 149 1241.94 146.4C1246.14 143.6 1251.94 142.2 1259.34 142.2C1263.34 142.2 1266.14 142.7 1267.74 143.7C1269.34 144.7 1270.14 146.6 1270.14 149.4C1270.14 152.6 1268.64 159.8 1265.64 171C1263.64 179 1262.04 186 1260.84 192C1259.64 198 1258.64 205.4 1257.84 214.2C1264.44 197 1271.84 183 1280.04 172.2C1288.24 161.4 1296.24 153.7 1304.04 149.1C1312.04 144.5 1319.34 142.2 1325.94 142.2C1332.34 142.2 1337.14 143.9 1340.34 147.3C1343.74 150.5 1345.44 155.3 1345.44 161.7C1345.44 166.9 1344.34 176.7 1342.14 191.1C1340.14 203.3 1338.54 214.9 1337.34 225.9C1336.14 236.7 1335.54 248.8 1335.54 262.2C1335.54 269.8 1333.94 275.3 1330.74 278.7C1327.74 281.9 1322.74 283.5 1315.74 283.5C1309.14 283.5 1304.34 281.8 1301.34 278.4C1298.34 275 1296.84 269.9 1296.84 263.1C1296.84 255.1 1298.24 241.9 1301.04 223.5C1303.44 207.5 1304.64 197.3 1304.64 192.9C1304.64 189.7 1303.54 188.1 1301.34 188.1C1298.74 188.1 1295.04 191.5 1290.24 198.3C1285.64 204.9 1280.84 213.7 1275.84 224.7C1271.04 235.7 1267.14 247.3 1264.14 259.5C1261.94 268.9 1259.34 275.3 1256.34 278.7C1253.54 281.9 1249.04 283.5 1242.84 283.5Z" fill="#4A4A4A"/>
</svg>
